<svg id="_1" data-name="1" xmlns="http://www.w3.org/2000/svg" width="158.904" height="44" viewBox="0 0 158.904 44">
  <path id="Vector" d="M22.116,7.59c7.621,3.811,14.161,4.523,19.262,3.985a21.877,21.877,0,0,1,1.516,3.519c-4.456.86-10.859.725-18.81-3.25C16.638,8.12,10.224,7.355,5.176,7.824A22.127,22.127,0,0,1,9.408,3.958,32.729,32.729,0,0,1,22.116,7.59Zm1.968-3.935A41.447,41.447,0,0,0,16.46.7,22.037,22.037,0,0,1,38.4,7.333,31.7,31.7,0,0,1,24.084,3.654ZM44,22q0,.526-.024,1.047-.223.054-.453.105c-4.473.994-11.106,1.047-19.439-3.12C14.817,15.4,7.15,15.346,1.723,16.552q-.573.127-1.11.272A21.836,21.836,0,0,1,2,12.82q.33-.084.676-.161c4.473-.994,11.106-1.047,19.439,3.12,8.914,4.457,16.347,4.675,21.731,3.612A22.232,22.232,0,0,1,44,22ZM22,44A22,22,0,0,1,0,22q0-.19,0-.379a21.937,21.937,0,0,1,2.674-.773c4.473-.994,11.106-1.047,19.439,3.12,8.593,4.3,15.81,4.654,21.141,3.722A22.009,22.009,0,0,1,22,44Z" fill="#1f1f1f" fill-rule="evenodd"/>
  <path id="Shangxi" d="M7.894,20.3a8.794,8.794,0,0,1-3.485-.686,8.35,8.35,0,0,1-2.746-1.9A7.721,7.721,0,0,1,0,14.837l2.983-1.294A6.169,6.169,0,0,0,5.042,16.21a5.138,5.138,0,0,0,3.036.95,4.187,4.187,0,0,0,1.637-.29,2.537,2.537,0,0,0,1.082-.845,2.052,2.052,0,0,0,.4-1.267,1.983,1.983,0,0,0-.528-1.426,3.22,3.22,0,0,0-1.531-.9L5.359,11.22A6.986,6.986,0,0,1,1.9,9.082,5.146,5.146,0,0,1,.739,5.729a5.46,5.46,0,0,1,.818-2.983A5.624,5.624,0,0,1,3.881.739,7.685,7.685,0,0,1,7.313,0,8.158,8.158,0,0,1,10.56.634,7.263,7.263,0,0,1,13.094,2.35,6.812,6.812,0,0,1,14.7,4.91L11.748,6.23a4.766,4.766,0,0,0-1.742-2.27,4.557,4.557,0,0,0-2.693-.818,3.743,3.743,0,0,0-1.584.317A2.484,2.484,0,0,0,4.646,4.3a2.154,2.154,0,0,0-.37,1.267A2.2,2.2,0,0,0,4.8,7.022a3.47,3.47,0,0,0,1.61.95l3.617,1.135a7.645,7.645,0,0,1,3.511,2.112,4.847,4.847,0,0,1,1.188,3.326,5.214,5.214,0,0,1-.871,2.983,5.932,5.932,0,0,1-2.4,2.033,8.109,8.109,0,0,1-3.564.739Z" transform="translate(59.216 12.692)" fill="#1f1f1f"/>
  <path id="Shangxi-2" data-name="Shangxi" d="M17.674,19.985V0h3.458V8.448l-.475-.5a3.749,3.749,0,0,1,1.637-1.954,5.193,5.193,0,0,1,2.693-.686,5.589,5.589,0,0,1,2.8.686A4.835,4.835,0,0,1,29.712,7.92a5.643,5.643,0,0,1,.686,2.825v9.24H26.94V11.563a3.406,3.406,0,0,0-.37-1.637,2.588,2.588,0,0,0-1.03-1.056,2.781,2.781,0,0,0-1.5-.4,2.868,2.868,0,0,0-1.5.4A2.588,2.588,0,0,0,21.5,9.926a3.406,3.406,0,0,0-.37,1.637v8.422Z" transform="translate(59.216 12.692)" fill="#1f1f1f"/>
  <path id="Shangxi-3" data-name="Shangxi" d="M37.679,20.3a6.3,6.3,0,0,1-2.614-.5,3.934,3.934,0,0,1-1.716-1.426,3.981,3.981,0,0,1-.607-2.191,4.052,4.052,0,0,1,2.165-3.7,8.179,8.179,0,0,1,2.8-.9l4.7-.766v2.64l-4.039.686a2.947,2.947,0,0,0-1.531.66,1.631,1.631,0,0,0-.5,1.241,1.453,1.453,0,0,0,.554,1.188,2.359,2.359,0,0,0,1.426.422,3.89,3.89,0,0,0,1.9-.449,3.266,3.266,0,0,0,1.294-1.294,3.511,3.511,0,0,0,.475-1.8v-3.7A1.9,1.9,0,0,0,41.243,8.9a2.756,2.756,0,0,0-1.9-.634,3.434,3.434,0,0,0-3.221,2.165L33.3,9.055A4.938,4.938,0,0,1,34.617,7.1a6.748,6.748,0,0,1,2.165-1.32,7.467,7.467,0,0,1,2.693-.475,6.994,6.994,0,0,1,3.115.66,4.852,4.852,0,0,1,2.086,1.8,4.655,4.655,0,0,1,.766,2.666v9.557H42.167V17.53l.739-.053a5.5,5.5,0,0,1-3.062,2.508,6.99,6.99,0,0,1-2.165.317Z" transform="translate(59.216 12.692)" fill="#1f1f1f"/>
  <path id="Shangxi-4" data-name="Shangxi" d="M48.637,19.985V5.623h3.247V8.448l-.264-.5a3.749,3.749,0,0,1,1.637-1.954,5.193,5.193,0,0,1,2.693-.686,5.589,5.589,0,0,1,2.8.686A4.835,4.835,0,0,1,60.675,7.92a5.643,5.643,0,0,1,.686,2.825v9.24H57.9V11.563a3.406,3.406,0,0,0-.37-1.637A2.588,2.588,0,0,0,56.5,8.87a2.781,2.781,0,0,0-1.5-.4,2.867,2.867,0,0,0-1.5.4,2.588,2.588,0,0,0-1.03,1.056,3.406,3.406,0,0,0-.37,1.637v8.422Z" transform="translate(59.216 12.692)" fill="#1f1f1f"/>
  <path id="Shangxi-5" data-name="Shangxi" d="M71.256,25.793a8.241,8.241,0,0,1-2.983-.528A7.136,7.136,0,0,1,65.9,23.786,5.5,5.5,0,0,1,64.471,21.6l3.221-1.214a2.949,2.949,0,0,0,1.241,1.61,4.547,4.547,0,0,0,4.171.238,2.9,2.9,0,0,0,1.267-1.162,3.4,3.4,0,0,0,.449-1.8V16l.66.792a4.915,4.915,0,0,1-1.98,1.954,5.922,5.922,0,0,1-2.825.66,6.993,6.993,0,0,1-3.59-.924A6.6,6.6,0,0,1,64.6,15.946a7.3,7.3,0,0,1-.9-3.617,7.207,7.207,0,0,1,.9-3.617A6.52,6.52,0,0,1,67.058,6.23,6.8,6.8,0,0,1,70.6,5.306a5.643,5.643,0,0,1,2.825.686A5.523,5.523,0,0,1,75.48,7.92L75,8.791V5.623h3.274V19.272a6.194,6.194,0,0,1-.924,3.353,6.317,6.317,0,0,1-2.482,2.323,7.469,7.469,0,0,1-3.617.845ZM71.1,16.21a3.771,3.771,0,0,0,1.927-.475,3.535,3.535,0,0,0,1.32-1.373,4.123,4.123,0,0,0,.475-2.006,3.9,3.9,0,0,0-.5-1.98A3.49,3.49,0,0,0,73,8.976a3.564,3.564,0,0,0-1.9-.5,3.844,3.844,0,0,0-1.954.5,3.618,3.618,0,0,0-1.373,1.4,4.067,4.067,0,0,0-.475,1.98,4.067,4.067,0,0,0,.475,1.98,3.732,3.732,0,0,0,1.346,1.373,3.9,3.9,0,0,0,1.98.5Z" transform="translate(59.216 12.692)" fill="#1f1f1f"/>
  <path id="Shangxi-6" data-name="Shangxi" d="M80.215,19.985l5.016-7.207L80.188,5.623h4.066l3.934,5.808H86.366L90.3,5.623h4.039l-5.016,7.154,4.99,7.207H90.273L86.392,14.2h1.769L84.28,19.985Z" transform="translate(59.216 12.692)" fill="#1f1f1f"/>
  <path id="Shangxi-7" data-name="Shangxi" d="M96.229,19.985V5.623h3.458V19.985Zm0-15.972V.317h3.458v3.7Z" transform="translate(59.216 12.692)" fill="#1f1f1f"/>
</svg>
