<svg xmlns="http://www.w3.org/2000/svg" width="109" height="44" viewBox="0 0 109 44">
  <g id="_2" data-name="2" transform="translate(-253.596)">
    <path id="Vector" d="M4.263,33.929a9.209,9.209,0,0,1-3.219-4A13.539,13.539,0,0,1,0,24.6a25.679,25.679,0,0,1,2.822-11.42A28.8,28.8,0,0,1,10.04,3.721Q14.432.005,18.877,0a5.4,5.4,0,0,1,3.352.966A3.587,3.587,0,0,1,23.494,4a12.262,12.262,0,0,1-.821,4.052,13.7,13.7,0,0,1-2.086,3.894,3.428,3.428,0,0,1-2.552,1.606,2.1,2.1,0,0,1-1.822-1.365,29.378,29.378,0,0,0,3.262-4.4,8.624,8.624,0,0,0,1.578-4.135q0-1.716-2-1.716-3.106,0-6.592,3.742a31.34,31.34,0,0,0-5.814,9.2A25.964,25.964,0,0,0,4.321,25a10.554,10.554,0,0,0,1.6,5.941,5.41,5.41,0,0,0,4.84,2.419,9.833,9.833,0,0,0,4.707-1.3,17,17,0,0,0,4.395-3.453,18.664,18.664,0,0,0,3.2-4.666l1.154.75a24.7,24.7,0,0,1-6.28,7.767A12.855,12.855,0,0,1,9.7,35.482a9.232,9.232,0,0,1-5.438-1.553Z" transform="translate(253.596 0.042)" fill="#1f1f1f"/>
    <path id="Vector-2" data-name="Vector" d="M.445,31.688A12.032,12.032,0,0,1,0,28.124q0-3.96,2.51-10.759A68.242,68.242,0,0,1,8.26,5.285Q11.5,0,13.545,0a1.551,1.551,0,0,1,1.4.971,4.569,4.569,0,0,1,.508,2.157,14.5,14.5,0,0,1-1.488,5.411,31.282,31.282,0,0,1-3.908,6.534,17.774,17.774,0,0,1-4.993,4.645A21.037,21.037,0,0,0,3.553,27.2l.042.924a8.439,8.439,0,0,0,.4-.966,39.418,39.418,0,0,1,1.864-4.135A13.244,13.244,0,0,1,8.546,19.57a5.618,5.618,0,0,1,3.971-1.606,3.429,3.429,0,0,1,2.976,1.3,5.118,5.118,0,0,1,.932,3.06,6.547,6.547,0,0,1-.265,1.889c-.18.588-.445,1.333-.8,2.246-.058.115-.169.388-.334.813a8,8,0,0,0-.355,1.144,4.262,4.262,0,0,0-.111.9c0,.939.4,1.406,1.2,1.406a4.175,4.175,0,0,0,2.309-.971,13.549,13.549,0,0,0,2.621-2.6,19.516,19.516,0,0,0,2.219-3.521l.71.75a18.917,18.917,0,0,1-3.971,5.852,7.119,7.119,0,0,1-4.993,2.246,3.567,3.567,0,0,1-2.552-.855,2.91,2.91,0,0,1-.911-2.225,14.656,14.656,0,0,1,.62-3.17,12.167,12.167,0,0,0,.667-3.212q0-1.85-1.6-1.847a3.171,3.171,0,0,0-2.685,1.648,32.542,32.542,0,0,0-2.462,4.865,28.06,28.06,0,0,1-1.954,4.073A2.36,2.36,0,0,1,1.822,33.1c-.62-.005-1.08-.472-1.377-1.412ZM9.5,12.674a35.216,35.216,0,0,0,2.753-5.038,10.42,10.42,0,0,0,1.064-3.5,7.378,7.378,0,0,0-1.906,2.136,40.645,40.645,0,0,0-2.886,4.8A42.147,42.147,0,0,0,6,16.9,21.055,21.055,0,0,0,9.5,12.674Z" transform="translate(275.791 0.262)" fill="#1f1f1f"/>
    <path id="Vector-3" data-name="Vector" d="M1.557,16.327A5.078,5.078,0,0,1,0,12.5,11.085,11.085,0,0,1,1.732,6.975,16.41,16.41,0,0,1,6.169,2,8.982,8.982,0,0,1,11.5,0,3.791,3.791,0,0,1,13.8.682a2.631,2.631,0,0,1,.932,2.267,5.979,5.979,0,0,1-1.641,3.983,12.41,12.41,0,0,1-4.241,3.06,17.4,17.4,0,0,1-5.306,1.5,5.221,5.221,0,0,0-.09,1.013A4.582,4.582,0,0,0,4.1,14.789q.643,1.141,2.775,1.144a9.079,9.079,0,0,0,5.528-2.178,16.648,16.648,0,0,0,4.548-5.437l.89.7A15.716,15.716,0,0,1,12.761,15.4,11.491,11.491,0,0,1,5.9,17.822a6,6,0,0,1-4.342-1.5ZM7.614,8.581a12.13,12.13,0,0,0,3.352-2.708,4.905,4.905,0,0,0,1.377-3.149.927.927,0,0,0-.18-.661.805.805,0,0,0-.577-.178A4.684,4.684,0,0,0,8.769,3.1a14.318,14.318,0,0,0-2.822,3.06A14.921,14.921,0,0,0,4.035,9.851a9.477,9.477,0,0,0,3.579-1.27Z" transform="translate(296.748 15.797)" fill="#1f1f1f"/>
    <path id="Vector-4" data-name="Vector" d="M5.544,18.326a2.857,2.857,0,0,1-1.022-2.309,5.766,5.766,0,0,1,.334-1.826,22.736,22.736,0,0,1,1-2.4c.381-.819.678-1.517.89-2.089a4.549,4.549,0,0,0,.312-1.517q0-1.669-2.219-2.818-.89,2.2-2.065,4.445T.667,13.6L0,12.322A50.334,50.334,0,0,0,3.6,4.356,1.592,1.592,0,0,1,3.151,3.17a3.714,3.714,0,0,1,.71-2.157C4.331.336,4.792,0,5.237,0a.842.842,0,0,1,.731.53,1.957,1.957,0,0,1,.286.882,3.158,3.158,0,0,1-.2.771c-.132.394-.228.682-.286.855a1.03,1.03,0,0,0,.355.593,8.441,8.441,0,0,0,1.154.813A12.7,12.7,0,0,1,9.7,6.4a3.6,3.6,0,0,1,.868,2.53,5.913,5.913,0,0,1-.334,1.937,21.088,21.088,0,0,1-1,2.33,7.456,7.456,0,0,0-.98,2.771c0,.677.371,1.013,1.112,1.013a5.322,5.322,0,0,0,2.907-1.055,14.426,14.426,0,0,0,2.886-2.577,12.785,12.785,0,0,0,1.933-2.839l1.064.792a14.887,14.887,0,0,1-2.489,3.784,14.356,14.356,0,0,1-3.574,2.949A7.738,7.738,0,0,1,8.2,19.182a4.006,4.006,0,0,1-2.658-.855Z" transform="translate(312.653 13.645)" fill="#1f1f1f"/>
    <path id="Vector-5" data-name="Vector" d="M.89,25.2A2.6,2.6,0,0,1,0,23.06a4.5,4.5,0,0,1,1.308-3.123A12.348,12.348,0,0,1,4.347,17.56q1.731-.968,4.485-2.246.755-1.889,2.129-6.864a18.581,18.581,0,0,1-3.129,3.521A5.017,5.017,0,0,1,4.57,13.246a4.2,4.2,0,0,1-2.621-.882A3.269,3.269,0,0,1,.794,9.593a13.585,13.585,0,0,1,.71-3.8A20.491,20.491,0,0,1,3.193,1.737Q4.17,0,4.882,0A3.3,3.3,0,0,1,6.216.462a2,2,0,0,1,1.064.992A16.8,16.8,0,0,0,5.438,5.28a13.038,13.038,0,0,0-1,4.225c0,1.086.429,1.627,1.287,1.627A4.342,4.342,0,0,0,8.61,9.588,21.5,21.5,0,0,0,11.586,5.8c.058-.2.148-.687.265-1.454a4.558,4.558,0,0,1,.8-2,2.056,2.056,0,0,1,1.774-.855c.116,0,.593.058,1.419.178a29.343,29.343,0,0,1-1.043,4.8q-1,3.7-2.33,7.216a13.376,13.376,0,0,0,4.109-2.687A12.248,12.248,0,0,0,19.618,6.24l.757.614a11.148,11.148,0,0,1-3.219,5.106,19.663,19.663,0,0,1-5.263,3.39,37.073,37.073,0,0,1-4.241,7.725Q5.5,25.918,3.013,25.915A3.229,3.229,0,0,1,.89,25.2Zm4.13-2.771A23.716,23.716,0,0,0,8,17.256a22.211,22.211,0,0,0-4.416,2.818,4.17,4.17,0,0,0-1.843,2.991,1.777,1.777,0,0,0,.2.855.674.674,0,0,0,.646.373C3.2,24.293,4.014,23.669,5.02,22.425Z" transform="translate(327.877 18.085)" fill="#1f1f1f"/>
    <path id="Vector-6" data-name="Vector" d="M.89,31.73A5.814,5.814,0,0,1,0,28.34q0-4.046,2.775-10.827A74.123,74.123,0,0,1,9.012,5.369Q12.475,0,14.117,0q.755,0,1.287,1.165a6.237,6.237,0,0,1,.577,2.356,16.975,16.975,0,0,1-1.641,5.92,43.875,43.875,0,0,1-4.416,7.9,29.325,29.325,0,0,1-5.931,6.471,25.272,25.272,0,0,0-.487,4.135,4.112,4.112,0,0,0,.508,2.288,1.6,1.6,0,0,0,1.4.75q1.557,0,3.309-2.047a22.009,22.009,0,0,0,3.129-4.949l1.064.572a21.347,21.347,0,0,1-4.3,6.224A7.108,7.108,0,0,1,3.728,33.01,3.222,3.222,0,0,1,.89,31.73ZM9.3,15.093a45.97,45.97,0,0,0,3.373-6.513A13.733,13.733,0,0,0,13.942,4c-.387,0-1.16.9-2.33,2.687a61.141,61.141,0,0,0-3.685,6.665A59.332,59.332,0,0,0,4.8,21.082,37.612,37.612,0,0,0,9.3,15.093Z" transform="translate(346.615)" fill="#1f1f1f"/>
  </g>
</svg>
