<svg xmlns="http://www.w3.org/2000/svg" width="138.465" height="32" viewBox="0 0 138.465 32">
  <g id="_3" data-name="3" transform="translate(-457.288 -6)">
    <path id="Vector" d="M6.665,7.98a11.342,11.342,0,0,0,8.02,19.363V32H0V0H14.685V4.658A11.342,11.342,0,0,0,6.665,7.98Z" transform="translate(457.288 6)" fill="#1f1f1f"/>
    <path id="Vector-2" data-name="Vector" d="M8.02,3.322a11.342,11.342,0,0,1,3.322,8.02,11.342,11.342,0,0,1-3.322,8.02A11.343,11.343,0,0,1,0,22.685V0A11.343,11.343,0,0,1,8.02,3.322Z" transform="translate(471.971 10.658)" fill="#1f1f1f"/>
    <path id="Vector-3" data-name="Vector" d="M0,2.411A2.411,2.411,0,1,1,2.411,4.822,2.411,2.411,0,0,1,0,2.411Z" transform="translate(590.931 12.509)" fill="#1f1f1f"/>
    <path id="Vanfaba" d="M8.322,16.092,12.727,1.3h4.289L10.505,20H7.68ZM4.264,1.3,8.656,16.092,9.324,20H6.473L0,1.3Z" transform="translate(490.199 10.771)" fill="#1f1f1f"/>
    <path id="Vanfaba-2" data-name="Vanfaba" d="M25.441,16.862v-6.19a2.722,2.722,0,0,0-.218-1.143,1.625,1.625,0,0,0-.681-.758,2.249,2.249,0,0,0-1.169-.27,2.417,2.417,0,0,0-1.066.218,1.543,1.543,0,0,0-.693.6,1.668,1.668,0,0,0-.244.912h-3.7a3.618,3.618,0,0,1,.411-1.682,4.194,4.194,0,0,1,1.194-1.4,5.9,5.9,0,0,1,1.862-.963,8.038,8.038,0,0,1,2.44-.347,7.243,7.243,0,0,1,2.877.539A4.4,4.4,0,0,1,28.433,8a4.7,4.7,0,0,1,.732,2.7v5.946a10.2,10.2,0,0,0,.141,1.875,4.937,4.937,0,0,0,.411,1.259V20H25.98a5.343,5.343,0,0,1-.411-1.413,11.642,11.642,0,0,1-.128-1.721Zm.488-5.33.026,2.093H23.887a4.319,4.319,0,0,0-1.271.167,2.366,2.366,0,0,0-.886.475,1.837,1.837,0,0,0-.514.693,2.4,2.4,0,0,0-.154.873,1.714,1.714,0,0,0,.218.86,1.555,1.555,0,0,0,.629.591,2.129,2.129,0,0,0,.963.205,3,3,0,0,0,1.451-.334,2.652,2.652,0,0,0,.95-.822,1.707,1.707,0,0,0,.36-.925l.976,1.567a6.344,6.344,0,0,1-.565,1.092,5.1,5.1,0,0,1-.886,1.066,4.571,4.571,0,0,1-1.3.809,4.759,4.759,0,0,1-1.8.308,5.4,5.4,0,0,1-2.4-.527,4.378,4.378,0,0,1-1.7-1.477,3.877,3.877,0,0,1-.616-2.158,4.391,4.391,0,0,1,.411-1.939,3.784,3.784,0,0,1,1.207-1.426,5.669,5.669,0,0,1,2.016-.886,11.381,11.381,0,0,1,2.8-.308Z" transform="translate(490.199 10.771)" fill="#1f1f1f"/>
    <path id="Vanfaba-3" data-name="Vanfaba" d="M35.638,9.067V20h-3.7V6.1h3.467ZM35.1,12.56h-1a9.005,9.005,0,0,1,.4-2.774,6.317,6.317,0,0,1,1.117-2.119A4.8,4.8,0,0,1,37.32,6.318a5.149,5.149,0,0,1,2.235-.475,5.384,5.384,0,0,1,1.785.283,3.416,3.416,0,0,1,1.387.9,3.987,3.987,0,0,1,.9,1.631,8.3,8.3,0,0,1,.321,2.479V20H40.223V11.122a3.276,3.276,0,0,0-.257-1.438,1.442,1.442,0,0,0-.758-.719A2.955,2.955,0,0,0,38,8.746a2.711,2.711,0,0,0-1.3.3,2.577,2.577,0,0,0-.9.822,3.879,3.879,0,0,0-.527,1.207,5.92,5.92,0,0,0-.18,1.49Z" transform="translate(490.199 10.771)" fill="#1f1f1f"/>
    <path id="Vanfaba-4" data-name="Vanfaba" d="M51.473,20H47.748V4.867a5.286,5.286,0,0,1,.616-2.658A4.03,4.03,0,0,1,50.124.565,6.052,6.052,0,0,1,52.834,0a6.171,6.171,0,0,1,.989.077q.475.064.925.167l-.039,2.787a3.214,3.214,0,0,0-.514-.09q-.27-.026-.629-.026a2.592,2.592,0,0,0-1.143.231,1.542,1.542,0,0,0-.706.655,2.156,2.156,0,0,0-.244,1.066ZM45.681,6.1V8.72h8.566V6.1Z" transform="translate(490.199 10.771)" fill="#1f1f1f"/>
    <path id="Vanfaba-5" data-name="Vanfaba" d="M63.686,16.862v-6.19a2.722,2.722,0,0,0-.218-1.143,1.625,1.625,0,0,0-.681-.758,2.249,2.249,0,0,0-1.169-.27,2.417,2.417,0,0,0-1.066.218,1.543,1.543,0,0,0-.693.6,1.668,1.668,0,0,0-.244.912h-3.7a3.618,3.618,0,0,1,.411-1.682,4.194,4.194,0,0,1,1.194-1.4,5.9,5.9,0,0,1,1.862-.963,8.038,8.038,0,0,1,2.44-.347,7.243,7.243,0,0,1,2.877.539A4.4,4.4,0,0,1,66.678,8a4.7,4.7,0,0,1,.732,2.7v5.946a10.2,10.2,0,0,0,.141,1.875,4.937,4.937,0,0,0,.411,1.259V20H64.225a5.343,5.343,0,0,1-.411-1.413,11.642,11.642,0,0,1-.128-1.721Zm.488-5.33.026,2.093H62.132a4.319,4.319,0,0,0-1.271.167,2.366,2.366,0,0,0-.886.475,1.836,1.836,0,0,0-.514.693,2.4,2.4,0,0,0-.154.873,1.714,1.714,0,0,0,.218.86,1.555,1.555,0,0,0,.629.591,2.129,2.129,0,0,0,.963.205,3,3,0,0,0,1.451-.334,2.652,2.652,0,0,0,.95-.822,1.707,1.707,0,0,0,.36-.925l.976,1.567a6.344,6.344,0,0,1-.565,1.092,5.1,5.1,0,0,1-.886,1.066,4.571,4.571,0,0,1-1.3.809,4.759,4.759,0,0,1-1.8.308,5.4,5.4,0,0,1-2.4-.527,4.378,4.378,0,0,1-1.7-1.477,3.877,3.877,0,0,1-.616-2.158,4.391,4.391,0,0,1,.411-1.939,3.784,3.784,0,0,1,1.207-1.426,5.669,5.669,0,0,1,2.016-.886,11.381,11.381,0,0,1,2.8-.308Z" transform="translate(490.199 10.771)" fill="#1f1f1f"/>
    <path id="Vanfaba-6" data-name="Vanfaba" d="M70.261.27h3.7V16.811L73.587,20H70.261Zm12.5,12.637v.27a11.425,11.425,0,0,1-.334,2.851,6.5,6.5,0,0,1-1,2.247,4.806,4.806,0,0,1-1.7,1.464,5.115,5.115,0,0,1-2.363.514A4.251,4.251,0,0,1,73.6,18.288a8.247,8.247,0,0,1-1.015-2.2,16.714,16.714,0,0,1-.578-2.748v-.591A16.714,16.714,0,0,1,72.586,10a8.248,8.248,0,0,1,1.015-2.2,4.483,4.483,0,0,1,1.554-1.451,4.426,4.426,0,0,1,2.183-.514,5.119,5.119,0,0,1,2.389.527,4.507,4.507,0,0,1,1.7,1.464,6.36,6.36,0,0,1,1,2.235,11.273,11.273,0,0,1,.334,2.838Zm-3.7.27v-.27a9.376,9.376,0,0,0-.128-1.592,4.211,4.211,0,0,0-.411-1.323,2.325,2.325,0,0,0-.809-.912,2.3,2.3,0,0,0-1.3-.334A2.91,2.91,0,0,0,75.128,9a2.379,2.379,0,0,0-.873.719,3.273,3.273,0,0,0-.5,1.1,6.748,6.748,0,0,0-.205,1.387V13.9a5.7,5.7,0,0,0,.334,1.8,2.719,2.719,0,0,0,.925,1.22,2.8,2.8,0,0,0,1.631.437,2.487,2.487,0,0,0,1.3-.308,2.073,2.073,0,0,0,.8-.873,4.211,4.211,0,0,0,.411-1.323,11.279,11.279,0,0,0,.116-1.67Z" transform="translate(490.199 10.771)" fill="#1f1f1f"/>
    <path id="Vanfaba-7" data-name="Vanfaba" d="M92.556,16.862v-6.19a2.722,2.722,0,0,0-.218-1.143,1.625,1.625,0,0,0-.681-.758,2.249,2.249,0,0,0-1.169-.27,2.417,2.417,0,0,0-1.066.218,1.543,1.543,0,0,0-.693.6,1.668,1.668,0,0,0-.244.912h-3.7A3.618,3.618,0,0,1,85.2,8.553a4.194,4.194,0,0,1,1.194-1.4,5.9,5.9,0,0,1,1.862-.963,8.038,8.038,0,0,1,2.44-.347,7.243,7.243,0,0,1,2.877.539A4.4,4.4,0,0,1,95.548,8a4.7,4.7,0,0,1,.732,2.7v5.946a10.2,10.2,0,0,0,.141,1.875,4.937,4.937,0,0,0,.411,1.259V20H93.1a5.343,5.343,0,0,1-.411-1.413,11.642,11.642,0,0,1-.128-1.721Zm.488-5.33.026,2.093H91a4.319,4.319,0,0,0-1.271.167,2.366,2.366,0,0,0-.886.475,1.837,1.837,0,0,0-.514.693,2.4,2.4,0,0,0-.154.873,1.714,1.714,0,0,0,.218.86,1.555,1.555,0,0,0,.629.591,2.129,2.129,0,0,0,.963.205,3,3,0,0,0,1.451-.334,2.652,2.652,0,0,0,.95-.822,1.707,1.707,0,0,0,.36-.925l.976,1.567a6.344,6.344,0,0,1-.565,1.092,5.1,5.1,0,0,1-.886,1.066,4.571,4.571,0,0,1-1.3.809,4.759,4.759,0,0,1-1.8.308,5.4,5.4,0,0,1-2.4-.527,4.378,4.378,0,0,1-1.7-1.477,3.877,3.877,0,0,1-.616-2.158,4.391,4.391,0,0,1,.411-1.939,3.784,3.784,0,0,1,1.207-1.426,5.669,5.669,0,0,1,2.016-.886,11.381,11.381,0,0,1,2.8-.308Z" transform="translate(490.199 10.771)" fill="#1f1f1f"/>
  </g>
</svg>
