<svg xmlns="http://www.w3.org/2000/svg" width="128.011" height="36" viewBox="0 0 128.011 36">
  <g id="_4" data-name="4" transform="translate(-690.445 -4)">
    <path id="Vector" d="M16.631,24.857l.471.443a24.1,24.1,0,0,1-4.539,7.692,7.953,7.953,0,0,1-5.92,2.969,5.085,5.085,0,0,1-3.762-1.517A8.959,8.959,0,0,1,.69,30.454,19.92,19.92,0,0,1,0,25.075,34.148,34.148,0,0,1,2.114,13.5,31.385,31.385,0,0,1,7.48,3.817Q10.717,0,13.856,0a2.886,2.886,0,0,1,2.279.938,4.3,4.3,0,0,1,.826,2.9,15.872,15.872,0,0,1-.608,4.016,16.474,16.474,0,0,1-1.516,3.881c-.608,1.073-1.205,1.607-1.789,1.607-.447,0-.8-.341-1.045-1.028a30.2,30.2,0,0,0,2.43-4.55,11.526,11.526,0,0,0,1.181-4.415,2.381,2.381,0,0,0-.4-1.472,1.475,1.475,0,0,0-1.249-.533q-2.326,0-4.991,3.991A37.648,37.648,0,0,0,4.5,15.127,36.326,36.326,0,0,0,2.7,25.834a14.208,14.208,0,0,0,1.181,6.137,3.8,3.8,0,0,0,3.577,2.474,5.957,5.957,0,0,0,3.509-1.317,14.239,14.239,0,0,0,3.271-3.5,20.532,20.532,0,0,0,2.4-4.768Z" transform="translate(690.445 4.039)" fill="#1f1f1f"/>
    <path id="Vector-2" data-name="Vector" d="M16.257,8.071l.335.443A18.316,18.316,0,0,1,14.77,12.73a10.671,10.671,0,0,1-2.4,2.879A3.989,3.989,0,0,1,9.91,16.638a2.046,2.046,0,0,1-1.8-.913,3.857,3.857,0,0,1-.622-2.211,9.2,9.2,0,0,1,.1-1.292A20.455,20.455,0,0,1,4.87,16.149,3.391,3.391,0,0,1,2.493,17.4a2.137,2.137,0,0,1-1.8-.958A4.649,4.649,0,0,1,0,13.694,14.784,14.784,0,0,1,1.434,7.808,18.686,18.686,0,0,1,5.059,2.275,6.17,6.17,0,0,1,9.346,0a2.884,2.884,0,0,1,2.192.938,3.386,3.386,0,0,1,.875,2.41,2.054,2.054,0,0,1-.437,1.472,1.634,1.634,0,0,1-1.215.443A7.61,7.61,0,0,0,10.93,3.7a3.522,3.522,0,0,0-.4-1.806A1.348,1.348,0,0,0,9.278,1.2q-1.487,0-3.12,2.185A19.979,19.979,0,0,0,3.426,8.6a15.714,15.714,0,0,0-1.1,5.218c0,1.163.3,1.742.909,1.742q1.349,0,3.174-2.834t3.912-6.889a2.628,2.628,0,0,1,.894.379.864.864,0,0,1,.457.739A3.475,3.475,0,0,1,11.353,8.1c-.214.521-.345.823-.389.913-.379.868-.685,1.632-.909,2.3a5.867,5.867,0,0,0-.335,1.851,3.141,3.141,0,0,0,.287,1.362.912.912,0,0,0,.86.6q.977,0,2.464-1.851a22.515,22.515,0,0,0,2.926-5.205Z" transform="translate(712.233 20.811)" fill="#1f1f1f"/>
    <path id="Vector-3" data-name="Vector" d="M12.418,11.15l.437.443a16.764,16.764,0,0,1-3.038,5.443Q7.827,19.4,5.8,19.4A2.21,2.21,0,0,1,4,18.6,3.2,3.2,0,0,1,3.344,16.5a14.816,14.816,0,0,1,.977-4.37c.292-.977.51-1.761.656-2.339A6.656,6.656,0,0,0,5.2,8.168a3.433,3.433,0,0,0-.389-1.761,4.589,4.589,0,0,0-.86-1.073Q3.473,4.91,3.3,4.775c-.5,1.664-1.021,3.3-1.584,4.884S.685,12.48.3,13.341L0,12.583A74.192,74.192,0,0,0,2.731,4.106,1.745,1.745,0,0,1,2.4,3.033a4.477,4.477,0,0,1,.253-1.517A3.421,3.421,0,0,1,3.256.4c.238-.263.423-.4.559-.4.316,0,.471.36.471,1.073a4.3,4.3,0,0,1-.17.8c-.117.418-.18.7-.2.848a1.341,1.341,0,0,0,.287.823,7.542,7.542,0,0,0,.928.958A9.531,9.531,0,0,1,6.765,6.446,4.7,4.7,0,0,1,7.353,8.92a8.161,8.161,0,0,1-.238,1.941c-.16.636-.394,1.478-.71,2.519a10.944,10.944,0,0,0-.744,3.078c0,.893.335,1.337,1.011,1.337A3.366,3.366,0,0,0,8.85,16.721a12.46,12.46,0,0,0,2.143-2.654,14.541,14.541,0,0,0,1.424-2.918Z" transform="translate(734.614 17.881)" fill="#1f1f1f"/>
    <path id="Vector-4" data-name="Vector" d="M13.3,8.624l.4.443a5.912,5.912,0,0,1-1.823,2.9,3.889,3.889,0,0,1-2.43.938,2.982,2.982,0,0,1-1.618-.443,15,15,0,0,1-2.581,3.393,3.9,3.9,0,0,1-2.581,1.292A2.168,2.168,0,0,1,.642,16.027,5.858,5.858,0,0,1,0,13.084,13.885,13.885,0,0,1,.574,9.247,11.455,11.455,0,0,1,2.056,5.9c.608-.893,1.215-1.337,1.823-1.337a1.539,1.539,0,0,1,.71.225,7.1,7.1,0,0,0-.977,1.96,27.793,27.793,0,0,0-1,3.232,12.235,12.235,0,0,0-.423,2.789q0,2.545,1.215,2.545a2.673,2.673,0,0,0,1.686-.983,13.083,13.083,0,0,0,1.925-2.59A7.058,7.058,0,0,1,5.55,9.061a11.312,11.312,0,0,1-.525-3.438A8.2,8.2,0,0,1,5.92,1.652,2.694,2.694,0,0,1,8.33,0a1.9,1.9,0,0,1,1.8.913,5.073,5.073,0,0,1,.525,2.519,13.587,13.587,0,0,1-.622,3.811A24.569,24.569,0,0,1,8.4,11.368a2.145,2.145,0,0,0,1.283.443,3.4,3.4,0,0,0,2.022-.778A4.849,4.849,0,0,0,13.3,8.624ZM9.04,7.011a11.678,11.678,0,0,0,.539-3.322,4.734,4.734,0,0,0-.287-1.876c-.19-.418-.433-.623-.724-.623a1.333,1.333,0,0,0-.962.6,4.81,4.81,0,0,0-.812,1.652,7.839,7.839,0,0,0-.321,2.3A12.151,12.151,0,0,0,6.76,8.4a6.659,6.659,0,0,0,.86,2.166A21.373,21.373,0,0,0,9.04,7.011Z" transform="translate(752.727 20.426)" fill="#1f1f1f"/>
    <path id="Vector-5" data-name="Vector" d="M11.28,1.086A7.831,7.831,0,0,1,11.6,3.3a22,22,0,0,1-1.264,6.047,56.026,56.026,0,0,1-3.324,8.1,29.184,29.184,0,0,1-4.384,6.645,27.481,27.481,0,0,0-.437,4.5c0,2.294.491,3.438,1.482,3.438.831,0,1.682-.694,2.547-2.095A24.821,24.821,0,0,0,8.534,24.9l.505.353q-2.9,8.2-6.342,8.206A2.155,2.155,0,0,1,.656,32.208,7.238,7.238,0,0,1,0,28.86,40.1,40.1,0,0,1,2.09,17.955,93.4,93.4,0,0,1,6.76,5.533Q9.341,0,10.488,0c.311,0,.578.366.792,1.086Zm-.724,3.232c0-.476-.083-.713-.238-.713q-.474,0-1.939,3.059a75.5,75.5,0,0,0-3.018,7.474,71.016,71.016,0,0,0-2.43,8.431,35.84,35.84,0,0,0,3.626-6.176,61.4,61.4,0,0,0,2.882-7.14,18.323,18.323,0,0,0,1.118-4.935Z" transform="translate(772.23 4)" fill="#1f1f1f"/>
    <path id="Vector-6" data-name="Vector" d="M0,2.32A2.108,2.108,0,0,1,.812.713,2.493,2.493,0,0,1,2.464,0c.744,0,1.113.463,1.113,1.382a2.425,2.425,0,0,1-.69,1.626,2,2,0,0,1-1.5.778,1.369,1.369,0,0,1-1-.379A1.436,1.436,0,0,1,0,2.32Z" transform="translate(791.929 13.061)" fill="#1f1f1f"/>
    <path id="Vector-7" data-name="Vector" d="M8.947,7.9l.3.443a13.977,13.977,0,0,1-2.785,5.841A5.207,5.207,0,0,1,2.6,16.284,2.153,2.153,0,0,1,.676,15.237,4.9,4.9,0,0,1,0,12.538a21.548,21.548,0,0,1,.758-4.82,27.291,27.291,0,0,1,1.891-5.4Q3.779,0,4.86,0a.656.656,0,0,1,.525.27A1.1,1.1,0,0,1,5.6.983,10.751,10.751,0,0,1,4.525,3.971q-1.108,2.458-1.769,4.4A11.545,11.545,0,0,0,2.1,12.049a4.034,4.034,0,0,0,.389,2.121,1.428,1.428,0,0,0,1.264.559q2.632,0,5.2-6.825Z" transform="translate(786.655 20.991)" fill="#1f1f1f"/>
    <path id="Vector-8" data-name="Vector" d="M17.652,5.809l.369.578q-2.428,7.538-5.837,7.538a2.088,2.088,0,0,1-1.755-.778,3.3,3.3,0,0,1-.608-2.076A7.2,7.2,0,0,1,9.973,9.71c.1-.514.209-1.028.321-1.536.136-.54.253-1.1.355-1.7A9.6,9.6,0,0,0,10.8,4.871c0-1.459-.452-2.185-1.351-2.185q-1.283,0-2.683,1.787a23.235,23.235,0,0,0-2.5,3.971q-1.094,2.188-2.479,5.263a2.264,2.264,0,0,1-1.045-.244A1.785,1.785,0,0,1,0,12.724a10.344,10.344,0,0,1,.437-1.607q.846-2.853,1.385-5.2A20.627,20.627,0,0,0,2.4,1.748,2.389,2.389,0,0,1,3.072,1.1,1.6,1.6,0,0,1,3.951.81c.608,0,.909.386.909,1.157a15.2,15.2,0,0,1-.3,2.339q-.306,1.677-.778,3.547A30.014,30.014,0,0,1,7.222,2.275Q9.045,0,10.8,0A2,2,0,0,1,12.67,1.182a6.046,6.046,0,0,1,.622,2.834,9.382,9.382,0,0,1-.185,1.876c-.126.591-.311,1.279-.559,2.05-.2.655-.36,1.221-.471,1.7a6.22,6.22,0,0,0-.17,1.427c0,1.131.335,1.7,1.011,1.7q1.145,0,2.377-2.005a30.291,30.291,0,0,0,2.357-4.948Z" transform="translate(800.434 23.086)" fill="#1f1f1f"/>
  </g>
</svg>
