<svg xmlns="http://www.w3.org/2000/svg" width="156.161" height="33.616" viewBox="0 0 156.161 33.616">
  <g id="_5" data-name="5" transform="translate(-913.147 -5.192)">
    <path id="Vector" d="M0,13.11a3.025,3.025,0,0,0,3.025-3.025A3.025,3.025,0,0,0,0,7.059V0A10.085,10.085,0,0,1,10.085,10.085,10.085,10.085,0,0,1,0,20.17Z" transform="translate(913.147 15.277)" fill="#1f1f1f"/>
    <path id="Vector-2" data-name="Vector" d="M23.531,13.336A7.229,7.229,0,0,0,11.465,21.01H.238A18.083,18.083,0,0,1,23.531.84Z" transform="translate(923.232 17.798)" fill="#1f1f1f"/>
    <path id="Vector-3" data-name="Vector" d="M10.818,0a4.54,4.54,0,0,0,4.217,2.857A4.54,4.54,0,0,0,19.252,0H30.07A15.13,15.13,0,0,1,15.035,13.447,15.13,15.13,0,0,1,0,0Z" transform="translate(914.92 5.192)" fill="#1f1f1f"/>
    <path id="Panadoxn" d="M0,.452H5.631A13.143,13.143,0,0,1,9.137.81a3.882,3.882,0,0,1,1.846,1.036,3.477,3.477,0,0,1,.837,1.647,14.163,14.163,0,0,1,.226,2.975V8.341a7.8,7.8,0,0,1-.425,3,2.908,2.908,0,0,1-1.567,1.448,7.333,7.333,0,0,1-2.962.5h-1.5v8.659H0ZM5.591,4.13V9.6q.239.013.412.013a1.285,1.285,0,0,0,1.063-.372,2.769,2.769,0,0,0,.305-1.58V5.9a2.072,2.072,0,0,0-.345-1.434A2.167,2.167,0,0,0,5.591,4.13Z" transform="translate(958.463 11.571)" fill="#1f1f1f"/>
    <path id="Panadoxn-2" data-name="Panadoxn" d="M22.618.452l3.2,21.5H20.095l-.279-3.865H17.81l-.332,3.865H11.687L14.53.452ZM19.656,14.277q-.425-3.652-.85-9.018-.85,6.162-1.062,9.018Z" transform="translate(958.463 11.571)" fill="#1f1f1f"/>
    <path id="Panadoxn-3" data-name="Panadoxn" d="M39.259.452v21.5h-4.9L31.45,12.179v9.775H26.775V.452H31.45l3.134,9.682V.452Z" transform="translate(958.463 11.571)" fill="#1f1f1f"/>
    <path id="Panadoxn-4" data-name="Panadoxn" d="M51.173.452l3.2,21.5H48.649l-.279-3.865H46.365l-.332,3.865H40.242L43.084.452ZM48.211,14.277q-.425-3.652-.85-9.018-.85,6.162-1.062,9.018Z" transform="translate(958.463 11.571)" fill="#1f1f1f"/>
    <path id="Panadoxn-5" data-name="Panadoxn" d="M55.33.452h4.184a25.919,25.919,0,0,1,5.472.372,4.2,4.2,0,0,1,2.178,1.222,3.871,3.871,0,0,1,.93,1.9,28.443,28.443,0,0,1,.186,4.091v7.53A17.184,17.184,0,0,1,68,19.444a2.91,2.91,0,0,1-.943,1.527,4.059,4.059,0,0,1-1.673.77,15.586,15.586,0,0,1-3,.212H55.33ZM60.921,4.13V18.275q1.209,0,1.487-.478a7.16,7.16,0,0,0,.279-2.643V6.8a11.214,11.214,0,0,0-.093-1.873.866.866,0,0,0-.425-.6,2.678,2.678,0,0,0-1.248-.2Z" transform="translate(958.463 11.571)" fill="#1f1f1f"/>
    <path id="Panadoxn-6" data-name="Panadoxn" d="M83.141,13.042a45.123,45.123,0,0,1-.159,4.6,5.048,5.048,0,0,1-.956,2.457,5.1,5.1,0,0,1-2.165,1.713,7.9,7.9,0,0,1-3.187.6,8.236,8.236,0,0,1-3.108-.558,5.153,5.153,0,0,1-2.2-1.7,5.09,5.09,0,0,1-1-2.457,45.4,45.4,0,0,1-.159-4.648V9.363q0-3.241.146-4.582A5.127,5.127,0,0,1,73.485.6,8.735,8.735,0,0,1,79.767.571a5.047,5.047,0,0,1,2.218,1.687,5.09,5.09,0,0,1,1,2.457,45.4,45.4,0,0,1,.159,4.648ZM77.549,5.977a6.341,6.341,0,0,0-.173-1.912.648.648,0,0,0-.677-.425.776.776,0,0,0-.677.345A4.873,4.873,0,0,0,75.8,5.977V16.017a10.311,10.311,0,0,0,.146,2.311.678.678,0,0,0,.717.438.688.688,0,0,0,.73-.5,10.638,10.638,0,0,0,.159-2.4Z" transform="translate(958.463 11.571)" fill="#1f1f1f"/>
    <path id="Panadoxn-7" data-name="Panadoxn" d="M96.568.452,94.616,9.961l2.948,11.993h-5.18a70.475,70.475,0,0,1-1.7-7.823q-.213,2.032-.584,4.316l-.531,3.506H84.123L86.142,9.961,84.123.452h5.405q.146.89.584,2.962.345,1.58.571,2.9L91.88.452Z" transform="translate(958.463 11.571)" fill="#1f1f1f"/>
    <path id="Panadoxn-8" data-name="Panadoxn" d="M110.845.452v21.5h-4.9l-2.909-9.775v9.775H98.361V.452h4.675l3.134,9.682V.452Z" transform="translate(958.463 11.571)" fill="#1f1f1f"/>
  </g>
</svg>
