<svg xmlns="http://www.w3.org/2000/svg" width="126" height="40" viewBox="0 0 126 40">
  <g id="_6" data-name="6" transform="translate(-1164 -2)">
    <path id="Vector" d="M.112,2.588C.112,1.9.072,1.034,0,0Q1.39.049,4.691.046C6.892.046,8.456.033,9.369,0,9.3,1.027,9.257,1.89,9.257,2.588c0,.435.02.823.053,1.159H8.961a8.4,8.4,0,0,0-.618-2.009A2.525,2.525,0,0,0,7.477.678,2.242,2.242,0,0,0,6.241.356H5.893V9.048a2.418,2.418,0,0,0,.131.922.714.714,0,0,0,.46.4,3.783,3.783,0,0,0,1.031.112v.3c-1.275-.033-2.234-.046-2.884-.046s-1.564.013-2.779.046v-.3A3.9,3.9,0,0,0,2.9,10.366a.686.686,0,0,0,.453-.4,2.443,2.443,0,0,0,.125-.922V.356H3.14A2.265,2.265,0,0,0,1.9.678a2.487,2.487,0,0,0-.874,1.06A8.75,8.75,0,0,0,.4,3.754H.059C.092,3.4.112,3.023.112,2.588Z" transform="translate(1164 31.008)" fill="#1f1f1f"/>
    <path id="Vector-2" data-name="Vector" d="M8.311,8.456a20.424,20.424,0,0,0,.105,2.311c-.69-.033-1.846-.046-3.476-.046q-3.3,0-4.941.046v-.3a2.259,2.259,0,0,0,.736-.119.551.551,0,0,0,.315-.356,2.8,2.8,0,0,0,.085-.83V1.607a2.8,2.8,0,0,0-.085-.83A.568.568,0,0,0,.736.421,2.225,2.225,0,0,0,0,.3V0Q1.636.049,4.941.046C6.425.046,7.483.033,8.114,0c-.066.836-.105,1.587-.105,2.252a8.278,8.278,0,0,0,.046,1.034H7.707a5.933,5.933,0,0,0-.473-1.745A2.028,2.028,0,0,0,6.425.626,2.432,2.432,0,0,0,5.217.349H4.592a2.109,2.109,0,0,0-.683.079.463.463,0,0,0-.289.3,2.332,2.332,0,0,0-.072.711V5.2h.48A1.4,1.4,0,0,0,5.256,4.61,3.772,3.772,0,0,0,5.834,3.2h.348c-.033.5-.053.981-.053,1.436l.007.731c0,.514.033,1.238.092,2.16H5.88Q5.575,5.512,4.027,5.512H3.541V9.345a2.565,2.565,0,0,0,.072.711.463.463,0,0,0,.289.3,2.109,2.109,0,0,0,.683.079h.749a2.21,2.21,0,0,0,1.728-.744A4.955,4.955,0,0,0,8,7.191H8.35c-.026.316-.039.744-.039,1.264Z" transform="translate(1181.877 31.016)" fill="#1f1f1f"/>
    <path id="Vector-3" data-name="Vector" d="M10,10.168a.887.887,0,0,0,.276.217.877.877,0,0,0,.348.079v.323c-1.064-.04-1.761-.059-2.083-.059q-.552,0-2.444.059v-.323a4.129,4.129,0,0,0,.769-.053q.237-.059.237-.2a.546.546,0,0,0-.112-.27L4.435,6.184,3.226,7.85a2.87,2.87,0,0,0-.7,1.6.871.871,0,0,0,.342.731,1.7,1.7,0,0,0,.946.3v.3c-.578-.033-1.38-.046-2.391-.046-.611,0-1.077.013-1.4.046v-.3a4.947,4.947,0,0,0,2.2-1.857L4.244,5.9.966,1.08A5.58,5.58,0,0,0,.624.619.89.89,0,0,0,.355.4.883.883,0,0,0,0,.323V0C1.123.04,1.853.059,2.175.059,3.062.059,3.83.04,4.494,0V.323a2.87,2.87,0,0,0-.736.066c-.158.046-.23.119-.23.224A.54.54,0,0,0,3.646.9l2.26,3.306L7.023,2.693a2.755,2.755,0,0,0,.716-1.528A.719.719,0,0,0,7.457.573a1.6,1.6,0,0,0-.828-.25V.02c.578.033,1.215.046,1.912.046.611,0,1.077-.013,1.4-.046v.3a2.628,2.628,0,0,0-.972.566,6.209,6.209,0,0,0-.939,1.027L6.1,4.491,9.658,9.707a3.975,3.975,0,0,0,.342.461Z" transform="translate(1198.617 30.995)" fill="#1f1f1f"/>
    <path id="Vector-4" data-name="Vector" d="M.112,2.588C.112,1.9.072,1.034,0,0Q1.39.049,4.691.046C6.892.046,8.456.033,9.369,0,9.3,1.027,9.257,1.89,9.257,2.588c0,.435.02.823.053,1.159H8.961a8.4,8.4,0,0,0-.618-2.009A2.525,2.525,0,0,0,7.477.678,2.242,2.242,0,0,0,6.241.356H5.893V9.048a2.418,2.418,0,0,0,.131.922.714.714,0,0,0,.46.4,3.783,3.783,0,0,0,1.031.112v.3c-1.275-.033-2.234-.046-2.884-.046s-1.564.013-2.779.046v-.3A3.9,3.9,0,0,0,2.9,10.366a.686.686,0,0,0,.453-.4,2.443,2.443,0,0,0,.125-.922V.356H3.14A2.265,2.265,0,0,0,1.9.678a2.487,2.487,0,0,0-.874,1.06A8.75,8.75,0,0,0,.4,3.754H.053A9.016,9.016,0,0,0,.112,2.588Z" transform="translate(1217.014 31.008)" fill="#1f1f1f"/>
    <path id="Vector-5" data-name="Vector" d="M3.942.415A.542.542,0,0,0,3.633.77a3.111,3.111,0,0,0-.079.83V9.147a3.111,3.111,0,0,0,.079.83.542.542,0,0,0,.309.356,2.238,2.238,0,0,0,.742.119v.3c-.539-.033-1.3-.046-2.293-.046-1.084,0-1.879.013-2.391.046v-.3a2.259,2.259,0,0,0,.736-.119.568.568,0,0,0,.315-.356,2.8,2.8,0,0,0,.085-.83V1.607a2.8,2.8,0,0,0-.085-.83A.568.568,0,0,0,.736.421,2.225,2.225,0,0,0,0,.3V0C.512.033,1.307.046,2.391.046,3.377.046,4.146.033,4.684,0V.3a2.274,2.274,0,0,0-.742.112Z" transform="translate(1234.891 31.016)" fill="#1f1f1f"/>
    <path id="Vector-6" data-name="Vector" d="M3.975.415A.573.573,0,0,0,3.633.77a2.556,2.556,0,0,0-.092.83V9.325a2.565,2.565,0,0,0,.072.711.45.45,0,0,0,.269.3,1.769,1.769,0,0,0,.618.079h.742A2.063,2.063,0,0,0,6.5,9.99,3.346,3.346,0,0,0,7.47,8.8,5.7,5.7,0,0,0,8.009,7.02h.348c-.033.349-.046.79-.046,1.337a22.039,22.039,0,0,0,.105,2.41c-.69-.033-1.846-.046-3.476-.046q-3.3,0-4.941.046v-.3a2.259,2.259,0,0,0,.736-.119.551.551,0,0,0,.315-.356,2.8,2.8,0,0,0,.085-.83V1.607a2.8,2.8,0,0,0-.085-.83A.568.568,0,0,0,.736.421,2.226,2.226,0,0,0,0,.3V0C.512.033,1.307.046,2.391.046,3.416.046,4.218.033,4.776,0V.3a2.61,2.61,0,0,0-.8.112Z" transform="translate(1248.193 31.016)" fill="#1f1f1f"/>
    <path id="Vector-7" data-name="Vector" d="M8.311,8.456a20.424,20.424,0,0,0,.105,2.311c-.69-.033-1.846-.046-3.476-.046q-3.3,0-4.941.046v-.3a2.259,2.259,0,0,0,.736-.119.568.568,0,0,0,.315-.356,2.8,2.8,0,0,0,.085-.83V1.607a2.8,2.8,0,0,0-.085-.83A.568.568,0,0,0,.736.421,2.225,2.225,0,0,0,0,.3V0Q1.636.049,4.941.046C6.425.046,7.483.033,8.114,0c-.066.836-.105,1.587-.105,2.252a8.278,8.278,0,0,0,.046,1.034H7.707a5.933,5.933,0,0,0-.473-1.745A2.028,2.028,0,0,0,6.425.626,2.432,2.432,0,0,0,5.217.349H4.592a2.109,2.109,0,0,0-.683.079.463.463,0,0,0-.289.3,2.332,2.332,0,0,0-.072.711V5.2h.48A1.4,1.4,0,0,0,5.256,4.61,3.772,3.772,0,0,0,5.834,3.2h.348c-.033.5-.053.981-.053,1.436l.007.731c0,.514.033,1.238.092,2.16H5.88Q5.575,5.512,4.027,5.512h-.48V9.345a2.565,2.565,0,0,0,.072.711.463.463,0,0,0,.289.3,2.109,2.109,0,0,0,.683.079h.749a2.21,2.21,0,0,0,1.728-.744,4.955,4.955,0,0,0,.94-2.5h.348c-.033.316-.046.744-.046,1.264Z" transform="translate(1265.053 31.016)" fill="#1f1f1f"/>
    <path id="Vector-8" data-name="Vector" d="M1.143,9.727a2.2,2.2,0,0,0,2.01,1.06,2.353,2.353,0,0,0,.959-.191,1.514,1.514,0,0,0,.677-.573,1.7,1.7,0,0,0,.25-.935,2.082,2.082,0,0,0-.276-1.067,3.275,3.275,0,0,0-.749-.863,14.8,14.8,0,0,0-1.255-.9A16.513,16.513,0,0,1,1.3,5.222,3.749,3.749,0,0,1,.414,4.182a2.7,2.7,0,0,1-.348-1.4A2.53,2.53,0,0,1,.532,1.238,2.8,2.8,0,0,1,1.767.3a4.541,4.541,0,0,1,1.7-.3,5.007,5.007,0,0,1,.953.079,3.327,3.327,0,0,1,.677.2,6.559,6.559,0,0,1,.591.31A1.271,1.271,0,0,0,6.2.81.24.24,0,0,0,6.412.652,1.637,1.637,0,0,0,6.531.145h.348c-.053.678-.072,1.837-.072,3.471H6.458A4.711,4.711,0,0,0,6.09,2.048,3.119,3.119,0,0,0,5.21.843,2.029,2.029,0,0,0,3.883.375,1.95,1.95,0,0,0,3.016.56a1.346,1.346,0,0,0-.591.54,1.6,1.6,0,0,0-.21.823,1.732,1.732,0,0,0,.453,1.238,7.179,7.179,0,0,0,1.176.975c.486.329.808.553.979.665A14.687,14.687,0,0,1,6.228,5.835a3.542,3.542,0,0,1,.848,1.027A2.763,2.763,0,0,1,7.4,8.219,2.634,2.634,0,0,1,6.9,9.858a3.04,3.04,0,0,1-1.353,1,5.306,5.306,0,0,1-1.905.329,5.611,5.611,0,0,1-1.413-.151A4.336,4.336,0,0,1,1.2,10.622a1.041,1.041,0,0,0-.512-.217.24.24,0,0,0-.217.158,1.637,1.637,0,0,0-.118.507H0q.059-.948.059-4.109H.407a5.6,5.6,0,0,0,.736,2.766Z" transform="translate(1282.596 30.812)" fill="#1f1f1f"/>
    <path id="Vector-9" data-name="Vector" d="M6.287,16.049a4.044,4.044,0,0,0,.223,1.574,1.206,1.206,0,0,0,.808.665,7.42,7.42,0,0,0,1.84.184v.593q-3.3-.079-4.921-.079-.769,0-4.238.079v-.54a4.194,4.194,0,0,0,1.3-.211.964.964,0,0,0,.558-.632,5.256,5.256,0,0,0,.151-1.475V2.851a5.288,5.288,0,0,0-.151-1.475A.959.959,0,0,0,1.307.751,3.97,3.97,0,0,0,.007.54V0q1.35.079,4.08.079C4.8.079,5.6.072,6.471.053S7.956.026,8.291.026A11.237,11.237,0,0,1,12.4.691a5.3,5.3,0,0,1,2.5,1.857,4.775,4.775,0,0,1,.834,2.786,5.823,5.823,0,0,1-.749,2.838,5.721,5.721,0,0,1-2.543,2.272,10.561,10.561,0,0,1-4.75.909H6.281v4.7Zm4.172-6.632a7.447,7.447,0,0,0,.828-3.793,7.414,7.414,0,0,0-.775-3.852A2.78,2.78,0,0,0,7.956.533,2.357,2.357,0,0,0,6.885.724a1.009,1.009,0,0,0-.473.672,6.133,6.133,0,0,0-.125,1.455V10.82H7.444a3.2,3.2,0,0,0,3.016-1.4Z" transform="translate(1165.023 2.025)" fill="#1f1f1f"/>
    <path id="Vector-10" data-name="Vector" d="M14.717,14.975a36.839,36.839,0,0,0,.184,4.09q-1.823-.079-6.149-.079-5.854,0-8.745.079v-.54a4.194,4.194,0,0,0,1.3-.211.964.964,0,0,0,.558-.632,5.256,5.256,0,0,0,.151-1.475V2.852a5.288,5.288,0,0,0-.151-1.475A.964.964,0,0,0,1.307.744,4.32,4.32,0,0,0,0,.54V0Q2.9.079,8.745.079c2.635,0,4.5-.026,5.611-.079-.125,1.482-.184,2.805-.184,3.984a15.727,15.727,0,0,0,.079,1.824h-.618a10.306,10.306,0,0,0-.841-3.089,3.622,3.622,0,0,0-1.432-1.613A4.322,4.322,0,0,0,9.224.619H8.12A3.838,3.838,0,0,0,6.905.757a.808.808,0,0,0-.506.527,4.37,4.37,0,0,0-.131,1.258V9.206h.854A2.471,2.471,0,0,0,9.3,8.153a6.558,6.558,0,0,0,1.025-2.5h.618c-.059.882-.092,1.732-.092,2.535l.013,1.291q0,1.363.158,3.826H10.4Q9.858,9.743,7.122,9.746H6.268v6.783A4.4,4.4,0,0,0,6.4,17.787a.808.808,0,0,0,.506.527,3.81,3.81,0,0,0,1.215.138H9.448a3.91,3.91,0,0,0,3.062-1.317,8.766,8.766,0,0,0,1.662-4.419h.618c-.046.58-.072,1.337-.072,2.259Z" transform="translate(1182.119 2.027)" fill="#1f1f1f"/>
    <path id="Vector-11" data-name="Vector" d="M16.372.994a1.74,1.74,0,0,0-.565,1.027,10.647,10.647,0,0,0-.151,2.068V19.118c-.131-.007-.348-.013-.657-.013s-.558.007-.723.013L2.621,4.313V14.646a11.571,11.571,0,0,0,.171,2.331,1.669,1.669,0,0,0,.7,1.087,4.052,4.052,0,0,0,1.734.461v.54q-1.035-.079-2.9-.079c-.985,0-1.767.026-2.332.079v-.54a2.624,2.624,0,0,0,1.294-.454,1.74,1.74,0,0,0,.565-1.027,10.647,10.647,0,0,0,.151-2.068V2.851a5.288,5.288,0,0,0-.151-1.475A.964.964,0,0,0,1.3.744,4.232,4.232,0,0,0,0,.54V0C.572.053,1.347.079,2.332.079Q3.682.079,4.638,0l10.4,12.842V4.419a11.571,11.571,0,0,0-.171-2.331A1.669,1.669,0,0,0,14.165,1,4.052,4.052,0,0,0,12.43.54V0q1.035.079,2.9.079c1,0,1.774-.026,2.332-.079V.54a2.6,2.6,0,0,0-1.288.454Z" transform="translate(1199.168 2.027)" fill="#1f1f1f"/>
    <path id="Vector-12" data-name="Vector" d="M16.372.994a1.74,1.74,0,0,0-.565,1.027,10.647,10.647,0,0,0-.151,2.068V19.118c-.131-.007-.348-.013-.657-.013s-.558.007-.723.013L2.621,4.313V14.646a11.571,11.571,0,0,0,.171,2.331,1.669,1.669,0,0,0,.7,1.087,4.052,4.052,0,0,0,1.734.461v.54q-1.035-.079-2.9-.079c-.985,0-1.767.026-2.332.079v-.54a2.624,2.624,0,0,0,1.294-.454,1.74,1.74,0,0,0,.565-1.027,10.647,10.647,0,0,0,.151-2.068V2.851a5.288,5.288,0,0,0-.151-1.475A.964.964,0,0,0,1.3.744,4.232,4.232,0,0,0,0,.54V0C.565.053,1.347.079,2.332.079Q3.682.079,4.638,0l10.4,12.842V4.419a11.571,11.571,0,0,0-.171-2.331A1.669,1.669,0,0,0,14.165,1,4.052,4.052,0,0,0,12.43.54V0q1.035.079,2.9.079c1,0,1.774-.026,2.332-.079V.54a2.622,2.622,0,0,0-1.288.454Z" transform="translate(1218.563 2.027)" fill="#1f1f1f"/>
    <path id="Vector-13" data-name="Vector" d="M14.717.079c.821,0,1.5-.026,2.043-.079V.54a3.566,3.566,0,0,0-1.242.994,11.836,11.836,0,0,0-1.347,2.121L11,9.951v6.283a5.256,5.256,0,0,0,.151,1.475.979.979,0,0,0,.558.632,4.181,4.181,0,0,0,1.314.211v.54c-.972-.053-2.345-.079-4.133-.079q-2.868,0-4.172.079v-.54a4.243,4.243,0,0,0,1.307-.211.957.957,0,0,0,.565-.632,5.256,5.256,0,0,0,.151-1.475V11.683L1.551,2.074C1,1.067.486.56,0,.56V0A30.232,30.232,0,0,0,3.16.132Q5.683.132,8.206,0V.566A5.3,5.3,0,0,0,6.715.731c-.361.112-.545.316-.545.626a1.229,1.229,0,0,0,.184.606l4.093,7.889,2.083-4.195a8.22,8.22,0,0,0,1.064-3.326A1.532,1.532,0,0,0,13.015,1,2.972,2.972,0,0,0,11.353.54V0c1.215.053,2.332.079,3.364.079Z" transform="translate(1236.84 2)" fill="#1f1f1f"/>
    <path id="Vector-14" data-name="Vector" d="M24.434.079Q25.705.079,26.5,0V.54c-1.051.4-1.833,1.475-2.359,3.207L19.408,19.111c-.191-.02-.506-.026-.946-.026s-.736.007-.933.026l-3.962-12-3.962,12c-.2-.02-.519-.026-.946-.026s-.742.007-.946.026L1.7,2.259A3.039,3.039,0,0,0,.926.968,1.574,1.574,0,0,0,0,.533V0C1.077.053,2.411.079,4.014.079Q6.271.079,7.306,0V.54a.951.951,0,0,0-.933,1.054,3.945,3.945,0,0,0,.237,1.212l3.922,11.36,2.727-7.995L11.879,2A2.521,2.521,0,0,0,11.248.9,1.46,1.46,0,0,0,10.394.54V0q1.5.079,3.843.079c1.741,0,3.029-.026,3.87-.079V.54A3.884,3.884,0,0,0,16.7.764a.768.768,0,0,0-.42.777,4.519,4.519,0,0,0,.263,1.264l3.673,11.268,2.556-8.14a11.522,11.522,0,0,0,.6-3.141A2.176,2.176,0,0,0,22.8,1.106a2.609,2.609,0,0,0-1.721-.56V0c1.222.053,2.332.079,3.351.079Z" transform="translate(1258.324 2.027)" fill="#1f1f1f"/>
    <path id="Vector-15" data-name="Vector" d="M3.962.56a1.94,1.94,0,0,1,.618,1.521A1.95,1.95,0,0,1,3.962,3.6a2.4,2.4,0,0,1-1.675.56A2.392,2.392,0,0,1,.618,3.6,1.94,1.94,0,0,1,0,2.081,1.95,1.95,0,0,1,.618.56,2.37,2.37,0,0,1,2.286,0,2.418,2.418,0,0,1,3.962.56Z" transform="translate(1284.367 17.31)" fill="#1f1f1f"/>
  </g>
</svg>
