<svg xmlns="http://www.w3.org/2000/svg" xmlns:xlink="http://www.w3.org/1999/xlink" width="40" height="40" viewBox="0 0 40 40">
  <defs>
    <clipPath id="clip-path">
      <rect id="Icon_Frame_Clip_Content_Mask_" data-name="Icon [Frame Clip Content Mask]" width="40" height="40" fill="none"/>
    </clipPath>
  </defs>
  <g id="Icon_Clip_Content_" data-name="Icon (Clip Content)" clip-path="url(#clip-path)">
    <rect id="Icon_Frame_Background_" data-name="Icon [Frame Background]" width="40" height="40" fill="none"/>
    <path id="XMLID_38_" d="M.009,0C.042,0-.023,0,.009,0Z" transform="translate(7.055 24.493)" fill="#1f1f1f"/>
    <path id="XMLID_39_" d="M37.745,35.315a.781.781,0,0,1,0,1.563A38.429,38.429,0,0,1,29.1,35.89a9.091,9.091,0,0,1-1.386,1.831l-.021.023-.026.024A8.277,8.277,0,0,1,22.005,40a7.819,7.819,0,0,1-2.08-.278A27.2,27.2,0,0,1,3.368.4.781.781,0,0,1,4.828.683,26.263,26.263,0,0,0,9.114,12.065a.781.781,0,1,1-1.294.876A27.82,27.82,0,0,1,3.691,3.285a25.747,25.747,0,0,0-.762,18.421,8.91,8.91,0,0,0,3.543,1.233.781.781,0,0,1,.678.872.829.829,0,0,1-.823.681,10.9,10.9,0,0,1-2.57-.641,25.418,25.418,0,0,0,5.31,7.786,25.672,25.672,0,0,0,1.941,1.752,8.911,8.911,0,0,0,3.829-.35.781.781,0,0,1,.472,1.49,10.541,10.541,0,0,1-2.14.441,25.506,25.506,0,0,0,7.172,3.245,6.656,6.656,0,0,0,6.252-1.585,7.627,7.627,0,0,0,.921-1.143,38.009,38.009,0,0,1-7.778-3.1A38.6,38.6,0,0,1,6.307,20.448a.781.781,0,0,1,1.282-.893A36.8,36.8,0,0,0,28.249,34.063a7.408,7.408,0,0,0-4.007-9.61,10.58,10.58,0,0,1,.8,3.558.781.781,0,0,1-.743.818h-.038a.781.781,0,0,1-.78-.744,9.045,9.045,0,0,0-1.339-4.309A27.5,27.5,0,0,1,18.124,22.1a10.649,10.649,0,0,1,.4,3.242.781.781,0,0,1-.781.758h-.024a.781.781,0,0,1-.757-.8,9.068,9.068,0,0,0-1.008-4.439,27.918,27.918,0,0,1-3.413-2.563.781.781,0,1,1,1.03-1.175,25.923,25.923,0,0,0,10.186,5.521l.039.01A9.021,9.021,0,0,1,27.78,25a8.877,8.877,0,0,1,2.537,6.374,9.317,9.317,0,0,1-.545,3.063,36.643,36.643,0,0,0,7.974.879Z" transform="translate(0.736 0.001)" fill="#1f1f1f"/>
    <path id="XMLID_397_" d="M.229,1.334a.781.781,0,0,1,0-1.1.781.781,0,0,1,1.1,0,.781.781,0,0,1,0,1.1.781.781,0,0,1-1.1,0Z" transform="translate(10.58 14.498)" fill="#1f1f1f"/>
  </g>
</svg>
