<svg id="Icon" xmlns="http://www.w3.org/2000/svg" width="40" height="40" viewBox="0 0 40 40">
  <rect id="Icon_Frame_Background_" data-name="Icon [Frame Background]" width="40" height="40" fill="none"/>
  <path id="XMLID_1605_" d="M40,24a9.369,9.369,0,0,1-11.631,9.085,9.242,9.242,0,0,1-5.713.849v4.519a.781.781,0,0,1-.781.781h-3.75a.781.781,0,0,1-.781-.781V33.93a9.241,9.241,0,0,1-5.713-.849,9.359,9.359,0,0,1-8.783-15.8A9.219,9.219,0,0,1,11.733,5.035a8.792,8.792,0,0,1,4.5-4.959.781.781,0,0,1,.67,1.412A7.265,7.265,0,0,0,12.773,8.02a.781.781,0,0,1-1.562,0A8.835,8.835,0,0,1,11.327,6.6a7.658,7.658,0,0,0-7.171,9.62,9.308,9.308,0,0,1,5.206-1.585.781.781,0,0,1,0,1.563,7.8,7.8,0,1,0,0,15.6c.117,0,.233,0,.349-.009a9.262,9.262,0,0,1-3.153-6.939.781.781,0,0,1,.391-.678,9.261,9.261,0,0,1,8.131-.535,9.261,9.261,0,0,1,4.529-6.774.781.781,0,0,1,.782,0,9.261,9.261,0,0,1,4.529,6.774,9.261,9.261,0,0,1,8.131.535.781.781,0,0,1,.391.678,9.262,9.262,0,0,1-3.153,6.939c.116.005.232.009.349.009a7.8,7.8,0,0,0,0-15.6.781.781,0,1,1,0-1.562,9.308,9.308,0,0,1,5.206,1.585A7.658,7.658,0,0,0,28.673,6.6a8.836,8.836,0,0,1,.116,1.421.781.781,0,0,1-1.562,0A7.265,7.265,0,0,0,23.1,1.487a.781.781,0,0,1,.67-1.412,8.792,8.792,0,0,1,4.5,4.959,9.219,9.219,0,0,1,8.884,12.244A9.334,9.334,0,0,1,40,24Zm-20-5.54a7.692,7.692,0,0,0-3.426,5.964A9.244,9.244,0,0,1,20,28.458a9.243,9.243,0,0,1,3.425-4.037A7.692,7.692,0,0,0,20,18.456ZM19.2,31.7a7.659,7.659,0,0,0-11.07-6.391A7.659,7.659,0,0,0,19.2,31.7Zm1.889,1.822A9.175,9.175,0,0,1,20,33.045a9.185,9.185,0,0,1-1.094.475v4.148h2.188ZM20.8,31.7a7.659,7.659,0,0,0,11.07-6.391A7.659,7.659,0,0,0,20.8,31.7Z" transform="translate(0 0.77)" fill="#1f1f1f"/>
  <path id="XMLID_1838_" d="M.229,1.334a.781.781,0,0,1,0-1.1.781.781,0,0,1,1.1,0,.781.781,0,0,1,0,1.1.781.781,0,0,1-1.1,0Z" transform="translate(19.219 0)" fill="#1f1f1f"/>
</svg>
