<svg xmlns="http://www.w3.org/2000/svg" xmlns:xlink="http://www.w3.org/1999/xlink" width="40" height="40" viewBox="0 0 40 40">
  <defs>
    <clipPath id="clip-path">
      <rect id="Icon_Frame_Clip_Content_Mask_" data-name="Icon [Frame Clip Content Mask]" width="40" height="40" fill="none"/>
    </clipPath>
  </defs>
  <g id="Icon_Clip_Content_" data-name="Icon (Clip Content)" clip-path="url(#clip-path)">
    <rect id="Icon_Frame_Background_" data-name="Icon [Frame Background]" width="40" height="40" fill="none"/>
    <path id="Vector" d="M10.321.228a.851.851,0,0,1,1.192.033.83.83,0,0,1-.033,1.176L4.87,7.671a.847.847,0,0,1-1.175-.025L.235,4.1A.831.831,0,1,1,1.427,2.937L4.311,5.9,10.321.228Z" transform="translate(14.201 16.057)" fill="#1f1f1f"/>
    <path id="Vector-2" data-name="Vector" d="M12.454,0A12.454,12.454,0,1,1,0,12.454,12.466,12.466,0,0,1,12.454,0Zm0,23.241A10.787,10.787,0,1,0,1.667,12.454,10.787,10.787,0,0,0,12.454,23.241Z" transform="translate(7.611 7.548)" fill="#1f1f1f"/>
    <path id="Vector-3" data-name="Vector" d="M39.842,19.544a.833.833,0,0,1,0,.917l-2.726,4.126.275,4.943a.846.846,0,0,1-.458.792l-4.4,2.226-2.226,4.4a.832.832,0,0,1-.792.458l-4.943-.275-4.126,2.726a.812.812,0,0,1-.917,0L15.4,37.132l-4.943.275a.845.845,0,0,1-.792-.458l-2.226-4.4-4.4-2.226a.831.831,0,0,1-.458-.792l.275-4.943L.137,20.452a.833.833,0,0,1,0-.917l2.726-4.126-.275-4.943a.845.845,0,0,1,.458-.792l4.4-2.226,2.226-4.4a.83.83,0,0,1,.792-.458l4.943.275L19.535.138a.833.833,0,0,1,.917,0l4.126,2.726L29.53,2.6a.846.846,0,0,1,.792.458l2.226,4.4,4.4,2.226a.832.832,0,0,1,.458.792l-.275,4.943ZM38.158,20l-2.576-3.9a.913.913,0,0,1-.133-.508l.258-4.677-4.16-2.1a.822.822,0,0,1-.367-.367l-2.1-4.16L24.4,4.547a.782.782,0,0,1-.509-.134l-3.9-2.576-3.9,2.576a.915.915,0,0,1-.509.134l-4.677-.259-2.1,4.16a.822.822,0,0,1-.367.367l-4.16,2.1.259,4.677a.78.78,0,0,1-.134.508L1.83,20l2.576,3.9a.911.911,0,0,1,.134.509L4.28,29.088l4.168,2.092a.821.821,0,0,1,.367.367l2.1,4.16,4.677-.259h.042a.825.825,0,0,1,.458.142l3.9,2.576,3.9-2.576a.911.911,0,0,1,.509-.133l4.676.258,2.1-4.16a.823.823,0,0,1,.367-.367l4.16-2.1-.258-4.676a.783.783,0,0,1,.133-.509Z" transform="translate(0.07)" fill="#1f1f1f"/>
  </g>
</svg>
