<svg xmlns="http://www.w3.org/2000/svg" width="80" height="80" viewBox="0 0 80 80">
  <g id="guarantee" transform="translate(0 0)">
    <rect id="guarantee_Frame_Background_" data-name="guarantee [Frame Background]" width="80" height="80" fill="none"/>
    <g id="guarantee-2" data-name="guarantee">
      <path id="Vector" d="M71.639,47.146c-.822,2.425-2.864,4.009-4.841,5.541a16.594,16.594,0,0,0-3.03,2.741,16.078,16.078,0,0,0-1.809,3.644c-.909,2.262-1.848,4.6-3.957,6.075-2.067,1.443-4.647,1.581-7.142,1.714a18.13,18.13,0,0,0-4.259.546A16.77,16.77,0,0,0,43,69.294C40.966,70.562,38.662,72,36,72s-4.966-1.438-7-2.7a16.805,16.805,0,0,0-3.6-1.888,18.13,18.13,0,0,0-4.259-.546c-2.493-.133-5.074-.271-7.142-1.714-2.105-1.471-3.046-3.81-3.955-6.07a15.943,15.943,0,0,0-1.816-3.65A16.528,16.528,0,0,0,5.2,52.687C3.224,51.156,1.182,49.57.361,47.147c-.79-2.335-.13-4.735.509-7.054A16.2,16.2,0,0,0,1.651,36a16.193,16.193,0,0,0-.781-4.09c-.639-2.321-1.3-4.719-.509-7.053.82-2.423,2.861-4.005,4.836-5.538a16.606,16.606,0,0,0,3.03-2.745,16.1,16.1,0,0,0,1.816-3.65c.909-2.26,1.848-4.6,3.952-6.065,2.071-1.446,4.65-1.584,7.145-1.719A18.155,18.155,0,0,0,25.4,4.6,16.685,16.685,0,0,0,29,2.706C31.034,1.437,33.336,0,36,0s4.964,1.437,6.994,2.7A16.8,16.8,0,0,0,46.6,4.594a18.13,18.13,0,0,0,4.259.546c2.493.133,5.076.272,7.145,1.719,2.1,1.468,3.043,3.807,3.952,6.067a15.959,15.959,0,0,0,1.812,3.649,16.651,16.651,0,0,0,3.03,2.741c1.977,1.531,4.021,3.116,4.841,5.542.79,2.332.13,4.732-.51,7.051A16.2,16.2,0,0,0,70.346,36a16.2,16.2,0,0,0,.781,4.091c.64,2.321,1.3,4.719.512,7.054Zm-3.529-6.222A18.617,18.617,0,0,1,67.216,36a18.7,18.7,0,0,1,.894-4.924c.537-1.95,1.047-3.793.563-5.215-.518-1.534-2.11-2.767-3.794-4.074a19.071,19.071,0,0,1-3.6-3.321,18.473,18.473,0,0,1-2.227-4.375c-.77-1.917-1.5-3.73-2.839-4.666s-3.368-1.044-5.52-1.158a20.7,20.7,0,0,1-5.021-.682,19.2,19.2,0,0,1-4.332-2.224C39.5,4.214,37.764,3.13,36,3.13s-3.5,1.083-5.335,2.227a19.273,19.273,0,0,1-4.334,2.224,20.639,20.639,0,0,1-5.021.684c-2.152.114-4.185.222-5.522,1.157s-2.067,2.745-2.838,4.666a18.508,18.508,0,0,1-2.229,4.375,19.009,19.009,0,0,1-3.6,3.326c-1.682,1.305-3.271,2.537-3.789,4.068-.484,1.426.023,3.268.562,5.218A18.754,18.754,0,0,1,4.781,36a18.766,18.766,0,0,1-.892,4.924c-.537,1.95-1.045,3.794-.562,5.22.518,1.531,2.108,2.763,3.791,4.068a19.091,19.091,0,0,1,3.6,3.323,18.545,18.545,0,0,1,2.226,4.373c.772,1.921,1.5,3.735,2.842,4.671s3.367,1.041,5.517,1.155a20.662,20.662,0,0,1,5.024.682,19.32,19.32,0,0,1,4.327,2.223C32.5,67.786,34.231,68.87,36,68.87s3.5-1.083,5.342-2.232a19.333,19.333,0,0,1,4.329-2.223,20.587,20.587,0,0,1,5.024-.682c2.15-.114,4.18-.222,5.517-1.155s2.071-2.75,2.842-4.672a18.583,18.583,0,0,1,2.222-4.372,19.128,19.128,0,0,1,3.6-3.321c1.684-1.305,3.276-2.539,3.794-4.07.484-1.426-.025-3.268-.563-5.218Z" transform="translate(4)" fill="#1f1f1f"/>
      <path id="Vector-2" data-name="Vector" d="M46.953,23.478A23.476,23.476,0,1,1,23.476,0,23.5,23.5,0,0,1,46.953,23.478Zm-3.13,0a20.222,20.222,0,0,0-3.581-11.5l-15.49,21.8a1.559,1.559,0,0,1-1.144.653,1.251,1.251,0,0,1-.131.006,1.56,1.56,0,0,1-1.107-.459l-9.391-9.391a1.565,1.565,0,1,1,2.213-2.213l8.081,8.081L38.188,9.462a20.32,20.32,0,1,0,5.634,14.017Z" transform="translate(16.521 12.521)" fill="#1f1f1f"/>
    </g>
  </g>
</svg>
