<svg id="phone-call" xmlns="http://www.w3.org/2000/svg" width="80" height="80" viewBox="0 0 80 80">
  <rect id="phone-call_Frame_Background_" data-name="phone-call [Frame Background]" width="80" height="80" fill="none"/>
  <g id="phone-call-2" data-name="phone-call">
    <path id="Vector" d="M38.811,0a4.733,4.733,0,0,1,4.745,4.711V30.305a4.733,4.733,0,0,1-4.745,4.711h-3.6l-8.151,5.862a1.008,1.008,0,0,1-1.042.08.993.993,0,0,1-.546-.885V35.016H4.745A4.733,4.733,0,0,1,0,30.305V4.711A4.733,4.733,0,0,1,4.745,0H9.874a.994.994,0,1,1,0,1.988H4.745A2.736,2.736,0,0,0,2,4.711V30.305a2.736,2.736,0,0,0,2.743,2.723H26.472a1,1,0,0,1,1,.994v4.1L34.3,33.217a1,1,0,0,1,.587-.189h3.925a2.736,2.736,0,0,0,2.743-2.723V4.711a2.736,2.736,0,0,0-2.743-2.723H14.236a.994.994,0,1,1,0-1.988H38.811Z" transform="translate(33.775 6.667)" fill="#1f1f1f" stroke="#1f1f1f" stroke-width="0.4"/>
    <path id="Vector-2" data-name="Vector" d="M63.522,52.181c0,.021.006.041.008.062a5.1,5.1,0,0,1-1.54,4.364L59.607,58.9a17.234,17.234,0,0,1-19.86,2.9A86.373,86.373,0,0,1,9.026,35.957a1.094,1.094,0,1,1,1.77-1.285A84.2,84.2,0,0,0,40.752,59.849a15.052,15.052,0,0,0,17.34-2.531l.018-.018L40.063,47.146,39,48.084a5.071,5.071,0,0,1-6.274.349C25.038,43.05,19.445,37.1,15.622,30.256a5.061,5.061,0,0,1,.749-5.964l.33-.349L6.838,5.477A15.1,15.1,0,0,0,3.731,22.948l.017.035c1.018,2.057,2.118,4.069,3.269,5.978.193.323.4.661.615,1.009a1.094,1.094,0,0,1-1.859,1.154c-.222-.358-.435-.706-.632-1.036-1.182-1.96-2.313-4.028-3.358-6.142l-.02-.04A16.976,16.976,0,0,1,.3,13.167a17.178,17.178,0,0,1,5.263-9.5l2.488-2.3a5.147,5.147,0,0,1,8.1,1.48l6.55,13.1a5.069,5.069,0,0,1-.847,5.729l-3.892,4.117a2.883,2.883,0,0,0-.429,3.4c3.658,6.554,9.037,12.262,16.444,17.451a2.889,2.889,0,0,0,3.575-.2l4.917-4.325a5.065,5.065,0,0,1,5.754-.642l3.034,1.653a1.094,1.094,0,1,1-1.047,1.921l-3.035-1.654a2.87,2.87,0,0,0-3.262.364L41.8,45.615l17.955,10.1.717-.688a2.932,2.932,0,0,0,.883-2.53l0-.018A2.931,2.931,0,0,0,59.84,50.3l-4.863-2.65a1.094,1.094,0,1,1,1.046-1.921l4.864,2.65a5.1,5.1,0,0,1,2.635,3.8ZM18.286,22.267l1.978-2.092a2.874,2.874,0,0,0,.48-3.248l-6.551-13.1a2.959,2.959,0,0,0-4.655-.851L8.5,3.938Z" transform="translate(2.666 8.736)" fill="#1f1f1f" stroke="#1f1f1f" stroke-width="0.4"/>
    <path id="Vector-3" data-name="Vector" d="M3.82,7.641a3.82,3.82,0,1,1,3.821-3.82A3.825,3.825,0,0,1,3.82,7.641Zm0-2.187A1.633,1.633,0,1,0,2.187,3.821,1.635,1.635,0,0,0,3.82,5.454Z" transform="translate(61.502 20.834)" fill="#1f1f1f"/>
    <path id="Vector-4" data-name="Vector" d="M3.821,7.641a3.82,3.82,0,1,1,3.82-3.82,3.825,3.825,0,0,1-3.82,3.82Zm0-2.187A1.633,1.633,0,1,0,2.187,3.821,1.635,1.635,0,0,0,3.82,5.454Z" transform="translate(51.375 20.834)" fill="#1f1f1f"/>
    <path id="Vector-5" data-name="Vector" d="M3.821,0A3.82,3.82,0,1,1,0,3.821,3.825,3.825,0,0,1,3.821,0ZM2.188,3.821A1.633,1.633,0,1,0,3.821,2.187,1.635,1.635,0,0,0,2.188,3.821Z" transform="translate(41.244 20.834)" fill="#1f1f1f"/>
  </g>
</svg>
