<svg id="Return" xmlns="http://www.w3.org/2000/svg" width="80" height="80" viewBox="0 0 80 80">
  <rect id="Return_Frame_Background_" data-name="Return [Frame Background]" width="80" height="80" fill="none"/>
  <g id="Return-2" data-name="Return">
    <path id="Vector" d="M48.889,41.481H3.929A3.934,3.934,0,0,1,0,37.553V1.481A1.482,1.482,0,0,1,1.481,0h56.3a1.482,1.482,0,0,1,1.481,1.481V13.333a1.481,1.481,0,0,1-2.963,0V2.963H2.963v34.59a.966.966,0,0,0,.966.966h44.96a1.481,1.481,0,0,1,0,2.963Z" transform="translate(4.445 22.222)" fill="#1f1f1f"/>
    <path id="Vector-2" data-name="Vector" d="M57.778,20.741a1.477,1.477,0,0,1-1.3-.767L47.532,3.73a1.474,1.474,0,0,0-1.3-.767H13.025a1.474,1.474,0,0,0-1.3.767L2.779,19.973a1.481,1.481,0,1,1-2.6-1.428L9.132,2.3A4.437,4.437,0,0,1,13.025,0H46.237A4.44,4.44,0,0,1,50.13,2.3l8.945,16.243a1.484,1.484,0,0,1-1.3,2.2Z" transform="translate(4.445 4.444)" fill="#1f1f1f"/>
    <path id="Vector-3" data-name="Vector" d="M1.481,20.741A1.482,1.482,0,0,1,0,19.259V1.481a1.481,1.481,0,0,1,2.963,0V19.259A1.482,1.482,0,0,1,1.481,20.741Z" transform="translate(32.596 4.444)" fill="#1f1f1f"/>
    <path id="Vector-4" data-name="Vector" d="M25.185,26.667A1.482,1.482,0,0,1,23.7,25.185V19.259a16.316,16.316,0,0,0-16.3-16.3H1.481A1.481,1.481,0,0,1,1.481,0H7.407A19.282,19.282,0,0,1,26.667,19.259v5.926A1.482,1.482,0,0,1,25.185,26.667Z" transform="translate(48.891 48.889)" fill="#1f1f1f"/>
    <path id="Vector-5" data-name="Vector" d="M11.852,20.739a1.473,1.473,0,0,1-.963-.359L.519,11.491a1.475,1.475,0,0,1,0-2.246L10.889.356a1.48,1.48,0,1,1,1.926,2.249L3.76,10.368l9.058,7.766a1.479,1.479,0,0,1-.966,2.6Z" transform="translate(48.891 40.002)" fill="#1f1f1f"/>
  </g>
</svg>
