<svg id="_002-delivery-truck_1" data-name="002-delivery-truck 1" xmlns="http://www.w3.org/2000/svg" width="80" height="80" viewBox="0 0 80 80">
  <rect id="_002-delivery-truck_1_Frame_Background_" data-name="002-delivery-truck 1 [Frame Background]" width="80" height="80" fill="none"/>
  <g id="Delivery-Truck">
    <path id="Vector" d="M75.556,32.235c0,.672-.071,1.77-.183,3.074,0,0,0,.009,0,.013-.387,4.523-1.254,11.517-1.3,11.9,0,.015-.005.03-.008.045s-.005.034-.009.051-.009.037-.014.056-.008.031-.013.047-.016.047-.025.07-.007.019-.01.028c-.014.033-.029.064-.046.1l0,.005c-.016.029-.033.057-.051.084l-.015.022c-.015.021-.03.042-.046.062l-.023.027c-.015.017-.029.033-.045.049l-.03.029-.044.04-.036.029-.044.033-.041.027-.045.028-.044.024-.048.023-.045.019-.054.02-.043.014-.065.017-.036.008c-.028.006-.057.01-.085.013l-.019,0c-.036,0-.072.006-.109.006H68.044a8.418,8.418,0,0,1-16.7,0H33.587a8.418,8.418,0,0,1-16.7,0H11.955q-.054,0-.108-.005h0c-.033,0-.065-.008-.1-.015l-.013,0c-.034-.007-.067-.016-.1-.025l-.008,0c-.029-.009-.057-.02-.084-.031l-.019-.007c-.02-.008-.039-.019-.059-.028a1.1,1.1,0,0,1-.257-.177c-.012-.011-.025-.022-.037-.034l-.006-.007a1.114,1.114,0,0,1-.263-.436l0-.012c0-.014-.008-.029-.011-.044s-.012-.042-.016-.063,0-.017,0-.025c-.005-.028-.01-.057-.013-.085,0-.009,0-.018,0-.027,0-.028,0-.056,0-.085,0,0,0,0,0,0,0-.021,0-.041,0-.061s0-.031,0-.046v-.008L12,35.091v0l.74-7.677H9a1.113,1.113,0,0,1,0-2.227h3.949l1.358-14.1H1.107a1.113,1.113,0,0,1,0-2.227H14.524l.756-7.85V1c0-.009,0-.018,0-.027,0-.029.007-.057.013-.085l0-.011A1.109,1.109,0,0,1,16.38,0H29.663a1.113,1.113,0,0,1,0,2.227H17.386l-.639,6.63h11.44a1.113,1.113,0,0,1,0,2.227H16.533l-1.358,14.1h7.108a1.113,1.113,0,0,1,0,2.227H14.96l-.643,6.679H52.775l.556-6.419s0,0,0-.006l2.2-25.439H34.09A1.113,1.113,0,0,1,34.09,0H56.74l.039,0c.019,0,.039,0,.058,0h.009L56.9.013l.057.009L57,.033l.064.017.028.01c.026.009.051.018.076.028l.01,0a1.113,1.113,0,0,1,.667,1.02h0s0,0,0,.007c0,.03,0,.059,0,.089L56.411,17.762h4.757A14.447,14.447,0,0,1,75.556,32.235ZM55.64,26.668h4.528l.578-6.679H56.218ZM31.449,47.079a6.213,6.213,0,1,0-6.213,6.25A6.239,6.239,0,0,0,31.449,47.079Zm34.456,0a6.213,6.213,0,1,0-6.213,6.25A6.239,6.239,0,0,0,65.9,47.079Zm7.164-10.859c-2.535-.42-4.027-2.143-5.363-3.687-1.619-1.871-3.148-3.639-6.539-3.639h-5.72L54.892,35.3s0,.005,0,.008c0,.019,0,.037-.008.055s0,.036-.008.053-.008.035-.012.053-.008.035-.013.052-.011.032-.016.048-.012.036-.02.053-.013.029-.019.043-.016.036-.026.053-.014.026-.022.039-.02.035-.031.052l-.025.037-.035.048-.029.035-.039.043-.033.033-.041.038-.038.032-.043.032-.042.029-.045.027-.045.025-.049.023-.045.021-.055.02-.043.015-.066.017-.036.009c-.028.006-.057.01-.086.013l-.02,0a1.082,1.082,0,0,1-.11.006H14.1l-.93,9.649h3.71a8.418,8.418,0,0,1,16.7,0H51.34a8.418,8.418,0,0,1,16.7,0h3.95c.233-1.925.753-6.321,1.075-9.746Zm.273-3.984A12.242,12.242,0,0,0,62.956,20.122l-.573,6.613c3.588.4,5.46,2.565,6.993,4.337,1.226,1.417,2.238,2.58,3.882,2.917.053-.73.084-1.336.084-1.753Z" transform="translate(2.223 12.223)" fill="#1f1f1f" stroke="#1f1f1f" stroke-width="0.3"/>
    <g id="Vector-2" data-name="Vector" transform="translate(23.4 55.22)" fill="#1f1f1f">
      <path d="M 4.05817985534668 7.664179801940918 C 2.096189737319946 7.664179801940918 0.4999998509883881 6.057260036468506 0.4999998509883881 4.082089900970459 C 0.4999998509883881 2.106920003890991 2.096189737319946 0.4999999105930328 4.05817985534668 0.4999999105930328 C 6.020169734954834 0.4999999105930328 7.616359710693359 2.106920003890991 7.616359710693359 4.082089900970459 C 7.616359710693359 6.057260036468506 6.020169734954834 7.664179801940918 4.05817985534668 7.664179801940918 Z M 4.05817985534668 1.726589918136597 C 2.765349864959717 1.726589918136597 1.713549852371216 2.783259868621826 1.713549852371216 4.082089900970459 C 1.713549852371216 5.380919933319092 2.765349864959717 6.4375901222229 4.05817985534668 6.4375901222229 C 5.351009845733643 6.4375901222229 6.402809619903564 5.380919933319092 6.402809619903564 4.082089900970459 C 6.402809619903564 2.783259868621826 5.351009845733643 1.726589918136597 4.05817985534668 1.726589918136597 Z" stroke="none"/>
      <path d="M 4.05817985534668 1 C 2.371890068054199 1 1 2.382619857788086 1 4.082089900970459 C 1 5.781559944152832 2.371890068054199 7.164179801940918 4.05817985534668 7.164179801940918 C 5.74446964263916 7.164179801940918 7.116359710693359 5.781559944152832 7.116359710693359 4.082089900970459 C 7.116359710693359 2.382619857788086 5.74446964263916 1 4.05817985534668 1 M 4.05817985534668 6.937589645385742 C 2.489649772644043 6.937589645385742 1.213550090789795 5.656620025634766 1.213550090789795 4.082089900970459 C 1.213550090789795 2.507559776306152 2.489649772644043 1.226589679718018 4.05817985534668 1.226589679718018 C 5.626709938049316 1.226589679718018 6.902810096740723 2.507559776306152 6.902810096740723 4.082089900970459 C 6.902810096740723 5.656620025634766 5.626709938049316 6.937589645385742 4.05817985534668 6.937589645385742 M 4.05817985534668 0 C 6.29578971862793 0 8.116359710693359 1.831299781799316 8.116359710693359 4.082089900970459 C 8.116359710693359 6.333029747009277 6.29578971862793 8.164179801940918 4.05817985534668 8.164179801940918 C 1.82056999206543 8.164179801940918 0 6.333029747009277 0 4.082089900970459 C 0 1.831150054931641 1.82056999206543 0 4.05817985534668 0 Z M 4.05817985534668 5.937589645385742 C 5.075229644775391 5.937589645385742 5.902810096740723 5.105289936065674 5.902810096740723 4.082089900970459 C 5.902810096740723 3.058889865875244 5.075379848480225 2.226589679718018 4.05817985534668 2.226589679718018 C 3.040979862213135 2.226589679718018 2.213550090789795 3.058889865875244 2.213550090789795 4.082089900970459 C 2.213550090789795 5.105289936065674 3.040979862213135 5.937589645385742 4.05817985534668 5.937589645385742 Z" stroke="none" fill="#1f1f1f"/>
    </g>
    <g id="Vector-3" data-name="Vector" transform="translate(57.857 55.22)" fill="#1f1f1f">
      <path d="M 4.058169841766357 7.664179801940918 C 2.096189737319946 7.664179801940918 0.4999998509883881 6.057260036468506 0.4999998509883881 4.082089900970459 C 0.4999998509883881 2.106920003890991 2.096189737319946 0.4999999105930328 4.058169841766357 0.4999999105930328 C 6.020149707794189 0.4999999105930328 7.616339683532715 2.106920003890991 7.616339683532715 4.082089900970459 C 7.616339683532715 6.057260036468506 6.020149707794189 7.664179801940918 4.058169841766357 7.664179801940918 Z M 4.05817985534668 1.726589918136597 C 2.765349864959717 1.726589918136597 1.713559865951538 2.783259868621826 1.713559865951538 4.082089900970459 C 1.713559865951538 5.380919933319092 2.765349864959717 6.4375901222229 4.05817985534668 6.4375901222229 C 5.351009845733643 6.4375901222229 6.402799606323242 5.380919933319092 6.402799606323242 4.082089900970459 C 6.402799606323242 2.783259868621826 5.351009845733643 1.726589918136597 4.05817985534668 1.726589918136597 Z" stroke="none"/>
      <path d="M 4.058169841766357 1 C 2.371890068054199 1 1 2.382619857788086 1 4.082089900970459 C 1 5.781559944152832 2.371890068054199 7.164179801940918 4.058169841766357 7.164179801940918 C 5.744449615478516 7.164179801940918 7.116339683532715 5.781559944152832 7.116339683532715 4.082089900970459 C 7.116339683532715 2.382619857788086 5.744449615478516 1 4.058169841766357 1 M 4.05817985534668 6.937589645385742 C 2.489649772644043 6.937589645385742 1.213559627532959 5.656620025634766 1.213559627532959 4.082089900970459 C 1.213559627532959 2.507559776306152 2.489649772644043 1.226589679718018 4.05817985534668 1.226589679718018 C 5.626709938049316 1.226589679718018 6.902799606323242 2.507559776306152 6.902799606323242 4.082089900970459 C 6.902799606323242 5.656620025634766 5.626709938049316 6.937589645385742 4.05817985534668 6.937589645385742 M 4.058169841766357 0 C 6.295769691467285 0 8.116339683532715 1.831299781799316 8.116339683532715 4.082089900970459 C 8.116339683532715 6.333029747009277 6.295769691467285 8.164179801940918 4.058169841766357 8.164179801940918 C 1.82056999206543 8.164179801940918 0 6.333029747009277 0 4.082089900970459 C 0 1.831150054931641 1.82056999206543 0 4.058169841766357 0 Z M 4.05817985534668 5.937589645385742 C 5.075379848480225 5.937589645385742 5.902799606323242 5.105289936065674 5.902799606323242 4.082089900970459 C 5.902799606323242 3.058889865875244 5.075379848480225 2.226589679718018 4.05817985534668 2.226589679718018 C 3.040979862213135 2.226589679718018 2.213559627532959 3.058889865875244 2.213559627532959 4.082089900970459 C 2.213559627532959 5.105289936065674 3.040979862213135 5.937589645385742 4.05817985534668 5.937589645385742 Z" stroke="none" fill="#1f1f1f"/>
    </g>
    <path id="Vector-4" data-name="Vector" d="M7.624,1.113A1.11,1.11,0,0,1,6.518,2.227H1.107A1.113,1.113,0,0,1,1.107,0H6.518A1.11,1.11,0,0,1,7.624,1.113Z" transform="translate(6.184 29.984)" fill="#1f1f1f" stroke="#1f1f1f" stroke-width="0.3"/>
  </g>
</svg>
