<svg id="Frame" xmlns="http://www.w3.org/2000/svg" width="38" height="24" viewBox="0 0 38 24">
  <rect id="Frame_Frame_Background_" data-name="Frame [Frame Background]" width="38" height="24" fill="none"/>
  <path id="Vector" d="M38,3V21a2.946,2.946,0,0,1-3,3H3a3.009,3.009,0,0,1-3-3V3A2.946,2.946,0,0,1,3,0H35A3.009,3.009,0,0,1,38,3Z" fill="#1f1f1f" opacity="0.07"/>
  <path id="Vector-2" data-name="Vector" d="M34,0a2.006,2.006,0,0,1,2,2V20a2.006,2.006,0,0,1-2,2H2a2.006,2.006,0,0,1-2-2V2A2.006,2.006,0,0,1,2,0Z" transform="translate(1 1)" fill="#fff"/>
  <path id="Vector-3" data-name="Vector" d="M3.012,7v3.7c0,.3-.2.3-.5.2a4.5,4.5,0,0,1-2.3-5.4,3.907,3.907,0,0,1,2.3-2.4c.4-.2.5-.1.5.2Zm2,0V3.3c0-.3,0-.3.3-.2a4.259,4.259,0,0,1,2.4,5.4,3.907,3.907,0,0,1-2.3,2.4c-.4.2-.4.1-.4-.2Zm14,0a6.852,6.852,0,0,1-6.8,7h-8.2a6.852,6.852,0,0,0,6.8-7,6.852,6.852,0,0,0-6.8-7h8.2A6.852,6.852,0,0,1,19.012,7Z" transform="translate(8.988 5)" fill="#3086c8"/>
</svg>
