<svg id="Frame" xmlns="http://www.w3.org/2000/svg" width="38" height="24" viewBox="0 0 38 24">
  <rect id="Frame_Frame_Background_" data-name="Frame [Frame Background]" width="38" height="24" fill="none"/>
  <path id="Vector" d="M38,3V21a2.946,2.946,0,0,1-3,3H3a3.009,3.009,0,0,1-3-3V3A2.946,2.946,0,0,1,3,0H35A3.009,3.009,0,0,1,38,3Z" fill="#1f1f1f" opacity="0.07"/>
  <path id="Vector-2" data-name="Vector" d="M34,0a2.006,2.006,0,0,1,2,2V20a2.006,2.006,0,0,1-2,2H2a2.006,2.006,0,0,1-2-2V2A2.006,2.006,0,0,1,2,0Z" transform="translate(1 1)" fill="#fff"/>
  <path id="Vector-3" data-name="Vector" d="M14,7A7,7,0,1,1,7,0,7,7,0,0,1,14,7Z" transform="translate(8 5)" fill="#eb001b"/>
  <path id="Vector-4" data-name="Vector" d="M14,7A7,7,0,1,1,7,0,7,7,0,0,1,14,7Z" transform="translate(16 5)" fill="#f79e1b"/>
  <path id="Vector-5" data-name="Vector" d="M3,11.4A6.963,6.963,0,0,1,0,5.7,7.1,7.1,0,0,1,3,0,6.827,6.827,0,0,1,6,5.7,6.827,6.827,0,0,1,3,11.4Z" transform="translate(16 6.301)" fill="#ff5f00"/>
</svg>
