<svg id="Frame" xmlns="http://www.w3.org/2000/svg" width="38" height="24" viewBox="0 0 38 24">
  <rect id="Frame_Frame_Background_" data-name="Frame [Frame Background]" width="38" height="24" fill="none"/>
  <path id="Vector" d="M38,3V21a2.946,2.946,0,0,1-3,3H3a3.009,3.009,0,0,1-3-3V3A2.946,2.946,0,0,1,3,0H35A3.009,3.009,0,0,1,38,3Z" fill="#1f1f1f" opacity="0.07"/>
  <path id="Vector-2" data-name="Vector" d="M34,0a2.006,2.006,0,0,1,2,2V20a2.006,2.006,0,0,1-2,2H2a2.006,2.006,0,0,1-2-2V2A2.006,2.006,0,0,1,2,0Z" transform="translate(1 1)" fill="#fff"/>
  <path id="Vector-3" data-name="Vector" d="M23.3,2.1H23a13.079,13.079,0,0,0-1,3h1.9A22.11,22.11,0,0,0,23.3,2.1ZM26.2,8H24.5c-.1,0-.1,0-.2-.1L24.1,7,24,6.8H21.6c-.1,0-.2,0-.2.2l-.3.9A.1.1,0,0,1,21,8H18.9l.2-.5L22,.7c0-.5.3-.7.8-.7h1.5c.1,0,.2,0,.2.2l1.4,6.5a4.253,4.253,0,0,1,.2,1.1c.1.1.1.1.1.2ZM12.8,7.7l.4-1.8a.349.349,0,0,1,.2.1,3.948,3.948,0,0,0,2.1.4,1.854,1.854,0,0,0,.7-.2c.5-.2.5-.7.1-1.1a5.582,5.582,0,0,0-.8-.5,4.129,4.129,0,0,1-1.1-.7A2.043,2.043,0,0,1,14.3.8c.6-.4.9-.8,1.7-.8a13.28,13.28,0,0,1,3.1.2h.1a10.462,10.462,0,0,1-.4,1.7,4.191,4.191,0,0,0-1.5-.4,2.769,2.769,0,0,0-.9.1.52.52,0,0,0-.4.2.483.483,0,0,0,0,.7l.5.4a10.908,10.908,0,0,1,1.1.6,2.208,2.208,0,0,1,1.1,1.4,2.148,2.148,0,0,1-.9,2.3,1.816,1.816,0,0,1-1.4.6A11.689,11.689,0,0,1,13,7.6c-.1.2-.1.2-.2.1ZM9.3,8a4.069,4.069,0,0,1,.2-1c.5-2.2,1-4.5,1.4-6.7.1-.2.1-.3.3-.3H13a30.054,30.054,0,0,1-.7,3.2c-.3,1.5-.6,3-1,4.5,0,.2-.1.2-.3.2M0,.2C0,.1.2,0,.3,0H3.7a.974.974,0,0,1,1,.8l.9,4.4c0,.1,0,.1.1.2a.1.1,0,0,1,.1-.1L7.9.2C7.8.1,7.9,0,8,0h2.1c0,.1,0,.1-.1.2L6.9,7.5c-.1.2-.1.3-.2.4s-.3,0-.5,0H4.7c-.1,0-.2,0-.2-.2L2.9,1.5A2.034,2.034,0,0,0,2,.9,6.656,6.656,0,0,0,.1.4Z" transform="translate(5 8)" fill="#142688"/>
</svg>
