<svg id="Frame" xmlns="http://www.w3.org/2000/svg" width="38" height="24" viewBox="0 0 38 24">
  <rect id="Frame_Frame_Background_" data-name="Frame [Frame Background]" width="38" height="24" fill="none"/>
  <g id="Group">
    <path id="Vector" d="M38,3V21a2.946,2.946,0,0,1-3,3H3a3.009,3.009,0,0,1-3-3V3A2.946,2.946,0,0,1,3,0H35A3.009,3.009,0,0,1,38,3Z" fill="#1f1f1f" opacity="0.07"/>
    <path id="Vector-2" data-name="Vector" d="M34,0a2.006,2.006,0,0,1,2,2V20a2.006,2.006,0,0,1-2,2H2a2.006,2.006,0,0,1-2-2V2A2.006,2.006,0,0,1,2,0Z" transform="translate(1 1)" fill="#006fcf"/>
    <path id="Vector-3" data-name="Vector" d="M4.971,2.268l.774,1.876H4.2Zm16.081-.78,2.077,2.34L21.052,6.073V5.334H18.075V4.412H21V3.173H18.069V2.346h2.977ZM6.983.006h3.995l.887,1.935L12.687,0h10.37l1.078,1.19L25.25,0h4.763L26.494,3.852,29.977,7.68H25.143L24.065,6.49,22.94,7.68H6.03L5.536,6.49H4.406L3.911,7.68H0L3.286,0h3.43Zm8.663,1.078H13.407l-1.5,3.536L10.282,1.084H8.06v4.81L6,1.084H4.007L1.625,6.6H3.18l.494-1.19h2.6L6.764,6.6h2.72V2.661L11.235,6.6h1.19l1.74-3.929V6.6h1.458l.024-5.52Zm9.34,2.768,2.531-2.768H25.695l-1.6,1.726L22.546,1.084H16.652V6.6h5.81l1.614-1.738L25.624,6.6H27.5Z" transform="translate(4 8)" fill="#fff"/>
  </g>
</svg>
