<svg id="Frame" xmlns="http://www.w3.org/2000/svg" xmlns:xlink="http://www.w3.org/1999/xlink" width="38" height="24" viewBox="0 0 38 24">
  <defs>
    <linearGradient id="linear-gradient" x1="0.755" y1="0.9" x2="0.41" y2="0.359" gradientUnits="objectBoundingBox">
      <stop offset="0" stop-color="#f89f20"/>
      <stop offset="0.25" stop-color="#f79a20"/>
      <stop offset="0.533" stop-color="#f68d20"/>
      <stop offset="0.62" stop-color="#f58720"/>
      <stop offset="0.723" stop-color="#f48120"/>
      <stop offset="1" stop-color="#f37521"/>
    </linearGradient>
    <linearGradient id="linear-gradient-2" x1="0.701" y1="0.893" x2="0.196" gradientUnits="objectBoundingBox">
      <stop offset="0" stop-color="#f58720"/>
      <stop offset="0.359" stop-color="#e16f27"/>
      <stop offset="0.703" stop-color="#d4602c"/>
      <stop offset="0.982" stop-color="#d05b2e"/>
    </linearGradient>
  </defs>
  <rect id="Frame_Frame_Background_" data-name="Frame [Frame Background]" width="38" height="24" fill="none"/>
  <path id="Vector" d="M38,3V21a2.946,2.946,0,0,1-3,3H3a3.009,3.009,0,0,1-3-3V3A2.946,2.946,0,0,1,3,0H35A3.009,3.009,0,0,1,38,3Z" fill="#1f1f1f" opacity="0.07"/>
  <path id="Vector-2" data-name="Vector" d="M34,0a2.006,2.006,0,0,1,2,2V20a2.006,2.006,0,0,1-2,2H2a2.006,2.006,0,0,1-2-2V2A2.006,2.006,0,0,1,2,0Z" transform="translate(1 1)" fill="#fff"/>
  <path id="Vector-3" data-name="Vector" d="M4.53,2.88a2.751,2.751,0,0,1-1,2.11,2.9,2.9,0,0,1-1.96.63H0V.12H1.57A2.745,2.745,0,0,1,4.53,2.88ZM3.42,2.87A1.848,1.848,0,0,0,2.83,1.5a2.01,2.01,0,0,0-1.47-.44H1.07V4.7h.29a2.053,2.053,0,0,0,1.47-.44A1.893,1.893,0,0,0,3.42,2.87ZM5.02.12H6.09v5.5H5.02Zm5.26,3.85a1.779,1.779,0,0,1-1.9,1.81,2.127,2.127,0,0,1-1.9-1.05l.69-.67a1.282,1.282,0,0,0,1.17.73.781.781,0,0,0,.83-.78.669.669,0,0,0-.32-.57,5.319,5.319,0,0,0-.74-.31c-1-.36-1.35-.75-1.35-1.51A1.625,1.625,0,0,1,8.48.04,2.418,2.418,0,0,1,10.1.65l-.56.73A1.075,1.075,0,0,0,8.68.93c-.46,0-.8.26-.8.61,0,.29.19.45.83.69,1.22.45,1.59.85,1.57,1.74ZM13.55,0a2.733,2.733,0,0,1,1.32.34V1.6A1.77,1.77,0,0,0,13.53.98a1.826,1.826,0,0,0-1.8,1.89,1.8,1.8,0,0,0,1.85,1.9,1.711,1.711,0,0,0,1.29-.6V5.43a2.925,2.925,0,0,1-1.34.32,2.846,2.846,0,0,1-2.9-2.87A2.9,2.9,0,0,1,13.55,0ZM24.87.12h1.16L23.66,5.76h-.58L20.75.12h1.17l1.47,3.7Zm1.65,0h3.04v.94H27.59V2.28h1.9v.93h-1.9V4.69h1.97v.93H26.52Zm6.03,3.19,1.73,2.32H32.96L31.48,3.42h-.14V5.63H30.27V.13h1.59c1.24,0,1.95.59,1.95,1.62a1.472,1.472,0,0,1-1.26,1.56Zm.15-1.5c0-.54-.36-.82-1.03-.82h-.33V2.66h.31c.69,0,1.05-.3,1.05-.85Z" transform="translate(2 7.039)" fill="#1f1f1f"/>
  <path id="Vector-4" data-name="Vector" d="M.858,5a2.931,2.931,0,1,1,2.073.858A2.931,2.931,0,0,1,.858,5Z" transform="translate(17.229 6.998)" fill="url(#linear-gradient)"/>
  <path id="Vector-5" data-name="Vector" d="M.858,5a2.931,2.931,0,1,1,2.073.858A2.931,2.931,0,0,1,.858,5Z" transform="translate(17.229 6.998)" opacity="0.65" fill="url(#linear-gradient-2)"/>
  <path id="Vector-6" data-name="Vector" d="M.24.28.4.48H.26L.12.29V.48H0V0H.16C.27,0,.34.05.34.15a.122.122,0,0,1-.1.13ZM.23.15Q.23.09.14.09H.12V.22H.14C.2.22.23.2.23.15Z" transform="translate(36.23 7.355)" fill="#1f1f1f"/>
  <path id="Vector-7" data-name="Vector" d="M.84.42A.423.423,0,0,1,.42.84.423.423,0,0,1,0,.42.423.423,0,0,1,.42,0,.423.423,0,0,1,.84.42ZM.75.42A.344.344,0,0,0,.42.07.346.346,0,0,0,.08.42.346.346,0,0,0,.42.77.344.344,0,0,0,.75.42Z" transform="translate(35.99 7.176)" fill="#1f1f1f"/>
  <path id="Vector-8" data-name="Vector" d="M28.047,5.012l-.024,3.02a2,2,0,0,1-2,1.984H0C18.114,6.889,28.024,0,28.024,0Z" transform="translate(8.976 12.984)" fill="#f48120"/>
</svg>
