<svg id="Frame" xmlns="http://www.w3.org/2000/svg" width="38" height="24" viewBox="0 0 38 24">
  <rect id="Frame_Frame_Background_" data-name="Frame [Frame Background]" width="38" height="24" fill="none"/>
  <path id="Vector" d="M38,3V21a2.946,2.946,0,0,1-3,3H3a3.009,3.009,0,0,1-3-3V3A2.946,2.946,0,0,1,3,0H35A3.009,3.009,0,0,1,38,3Z" fill="#1f1f1f" opacity="0.07"/>
  <path id="Vector-2" data-name="Vector" d="M34,0a2.006,2.006,0,0,1,2,2V20a2.006,2.006,0,0,1-2,2H2a2.006,2.006,0,0,1-2-2V2A2.006,2.006,0,0,1,2,0Z" transform="translate(1 1)" fill="#fff"/>
  <path id="Vector-3" data-name="Vector" d="M5.2,5.4,3.4,7.6,3,11H.3c-.2,0-.3-.2-.3-.4L1.5.5A.634.634,0,0,1,2.1,0H6.2A3.994,3.994,0,0,1,9.3,1a2.31,2.31,0,0,1,.6,2.3Z" transform="translate(14 5)" fill="#003087"/>
  <path id="Vector-4" data-name="Vector" d="M7.8.8a2.734,2.734,0,0,1,.4,2.4c-.4,2.4-2,3.2-4.1,3.2H3.8c-.2,0-.5.2-.5.4v.1L2.9,9.3v.1a.458.458,0,0,1-.5.4H.3c-.2,0-.3-.2-.3-.4l.2-1L.8,4.5A.634.634,0,0,1,1.4,4H2.5C4.9,4,6.6,3,7.1.2L7.3,0a1.009,1.009,0,0,1,.5.8Z" transform="translate(16.6 8.301)" fill="#3086c8"/>
  <path id="Vector-5" data-name="Vector" d="M6,.3a.764.764,0,0,1,.5.2V.7C6,3.5,4.4,4.5,1.9,4.5H.6A.56.56,0,0,0,0,5V4.9L.7.5C.7.3.8.2,1,.1c0-.1.1-.1.2-.1h3A3.75,3.75,0,0,1,5.3.1a.367.367,0,0,0,.3.1.367.367,0,0,1,.3.1Z" transform="translate(17.4 7.801)" fill="#012169"/>
</svg>
