<svg id="_002-delivery-truck_1" data-name="002-delivery-truck 1" xmlns="http://www.w3.org/2000/svg" width="36" height="36" viewBox="0 0 36 36">
  <rect id="_002-delivery-truck_1_Frame_Background_" data-name="002-delivery-truck 1 [Frame Background]" width="36" height="36" fill="none"/>
  <g id="Delivery-Truck">
    <path id="Vector" d="M32,13.653c0,.285-.03.75-.077,1.3v.006c-.164,1.916-.531,4.878-.551,5.038,0,.006,0,.013,0,.019s0,.015,0,.022,0,.016-.006.024,0,.013-.005.02-.007.02-.011.03l0,.012c-.006.014-.012.027-.019.04v0c-.007.012-.014.024-.021.036l-.007.009-.019.026-.01.011-.019.021-.013.012-.019.017-.015.012-.019.014-.017.012-.019.012-.019.01-.02.01-.019.008-.023.008-.018.006-.027.007L31,20.4l-.036.006h-.008l-.046,0H28.819a3.566,3.566,0,0,1-7.075,0H14.225a3.565,3.565,0,0,1-7.075,0H5.063l-.046,0h0L4.975,20.4H4.97l-.042-.011h0l-.036-.013-.008,0-.025-.012a.465.465,0,0,1-.109-.075l-.016-.014,0,0a.472.472,0,0,1-.111-.185l0-.005c0-.006,0-.012,0-.019s0-.018-.007-.027,0-.007,0-.011,0-.024-.005-.036,0-.008,0-.011,0-.024,0-.036h0c0-.009,0-.017,0-.026s0-.013,0-.019v0l.484-5.028h0l.313-3.252H3.813a.472.472,0,0,1,0-.943H5.485L6.06,4.694H.469a.472.472,0,0,1,0-.943H6.151L6.472.426v0s0-.007,0-.011,0-.024.005-.036v0A.47.47,0,0,1,6.938,0h5.626a.472.472,0,0,1,0,.943h-5.2L7.093,3.751h4.845a.472.472,0,0,1,0,.943H7l-.575,5.972H9.438a.472.472,0,0,1,0,.943h-3.1l-.272,2.829H22.352l.235-2.719v0L23.521.943H14.438a.472.472,0,0,1,0-.943h9.638l.023,0,.024,0,.019,0,.027.007.012,0,.032.012,0,0A.472.472,0,0,1,24.5.471h0s0,0,0,0,0,.025,0,.038l-.607,7.011h2.015A6.119,6.119,0,0,1,32,13.653Zm-8.435-2.358h1.918l.245-2.829H23.81ZM13.32,19.94a2.632,2.632,0,1,0-2.632,2.647A2.642,2.642,0,0,0,13.32,19.94Zm14.593,0a2.632,2.632,0,1,0-2.632,2.647,2.642,2.642,0,0,0,2.632-2.647Zm3.034-4.6a3.846,3.846,0,0,1-2.271-1.561,3.354,3.354,0,0,0-2.77-1.541H23.484l-.235,2.713v0c0,.008,0,.016,0,.023s0,.015,0,.023,0,.015-.005.023l-.006.022-.007.02-.008.023-.008.018-.011.023-.009.017-.013.022-.011.016-.015.02-.012.015-.016.018-.014.014-.017.016-.016.013-.018.014-.018.012-.019.012L23,15.327l-.021.01-.019.009-.023.009-.018.006-.028.007-.015,0-.036.006h-.009l-.047,0H5.973l-.394,4.087H7.151a3.565,3.565,0,0,1,7.075,0h7.519a3.565,3.565,0,0,1,7.075,0h1.673c.1-.815.319-2.677.455-4.128Zm.115-1.687a5.185,5.185,0,0,0-4.4-5.13l-.243,2.8a4.4,4.4,0,0,1,2.962,1.837A3.069,3.069,0,0,0,31.028,14.4c.022-.309.035-.566.035-.743Z" transform="translate(2 6)" fill="#1f1f1f" stroke="#1f1f1f" stroke-width="0.2"/>
    <path id="Vector-2" data-name="Vector" d="M3.438,1.729A1.719,1.719,0,1,1,1.719,0,1.726,1.726,0,0,1,3.438,1.729Zm-.938,0a.781.781,0,1,0-.781.786A.784.784,0,0,0,2.5,1.729Z" transform="translate(10.969 24.211)" fill="#1f1f1f" stroke="#1f1f1f"/>
    <path id="Vector-3" data-name="Vector" d="M3.438,1.729A1.719,1.719,0,1,1,1.719,0,1.726,1.726,0,0,1,3.438,1.729Zm-.938,0a.781.781,0,1,0-.781.786A.784.784,0,0,0,2.5,1.729Z" transform="translate(25.563 24.211)" fill="#1f1f1f" stroke="#1f1f1f"/>
    <path id="Vector-4" data-name="Vector" d="M3.229.472A.47.47,0,0,1,2.76.943H.469A.472.472,0,0,1,.469,0H2.76A.47.47,0,0,1,3.229.472Z" transform="translate(3.678 13.522)" fill="#1f1f1f" stroke="#1f1f1f" stroke-width="0.2"/>
  </g>
</svg>
