<svg xmlns="http://www.w3.org/2000/svg" width="32" height="32" viewBox="0 0 32 32">
  <g id="Return" transform="translate(-2 -2)">
    <g id="Return-2" data-name="Return">
      <path id="Vector" d="M22,18.667H1.768A1.77,1.77,0,0,1,0,16.9V.667A.667.667,0,0,1,.667,0H26a.667.667,0,0,1,.667.667V6a.667.667,0,1,1-1.333,0V1.333h-24V16.9a.435.435,0,0,0,.435.435H22a.667.667,0,0,1,0,1.333Z" transform="translate(2 10)" fill="#1f1f1f"/>
      <path id="Vector-2" data-name="Vector" d="M26,9.333a.665.665,0,0,1-.584-.345L21.389,1.679a.663.663,0,0,0-.584-.345H5.861a.663.663,0,0,0-.584.345L1.251,8.988A.667.667,0,0,1,.083,8.345L4.109,1.036A2,2,0,0,1,5.861,0H20.807a2,2,0,0,1,1.752,1.035l4.025,7.309A.668.668,0,0,1,26,9.333Z" transform="translate(2 2)" fill="#1f1f1f"/>
      <path id="Vector-3" data-name="Vector" d="M.667,9.333A.667.667,0,0,1,0,8.667v-8a.667.667,0,0,1,1.333,0v8A.667.667,0,0,1,.667,9.333Z" transform="translate(14.668 2)" fill="#1f1f1f"/>
      <path id="Vector-4" data-name="Vector" d="M11.333,12a.667.667,0,0,1-.667-.667V8.667A7.342,7.342,0,0,0,3.333,1.333H.667A.667.667,0,0,1,.667,0H3.333A8.677,8.677,0,0,1,12,8.667v2.667A.667.667,0,0,1,11.333,12Z" transform="translate(22 22)" fill="#1f1f1f"/>
      <path id="Vector-5" data-name="Vector" d="M5.333,9.332A.663.663,0,0,1,4.9,9.171l-4.667-4a.664.664,0,0,1,0-1.011L4.9.16a.666.666,0,1,1,.867,1.012L1.692,4.666,5.768,8.16a.665.665,0,0,1-.435,1.172Z" transform="translate(22 18.001)" fill="#1f1f1f"/>
    </g>
  </g>
</svg>
