<svg xmlns="http://www.w3.org/2000/svg" width="31.102" height="31.109" viewBox="0 0 31.102 31.109">
  <g id="Return" transform="translate(-2.45 -2.449)">
    <g id="Group">
      <path id="Vector" d="M12.173.05H15L12.741,5.185M6.88,3.67H3.656S5.363.575,5.645.229,6.2.1,6.225.406s-.013,4.779-.013,4.779M0,1.059a1.314,1.314,0,0,1,2.6.255l-.025.2a3.305,3.305,0,0,1-.546,1.115C.394,4.968.086,5.176.2,5.216s2.617.008,2.617.008M10.416.05,8.353,5.235" transform="translate(13.047 13.694)" fill="none" stroke="#1f1f1f" stroke-linecap="round" stroke-linejoin="round" stroke-width="1.1"/>
      <path id="Vector-2" data-name="Vector" d="M1.018,8.535A9.8,9.8,0,0,1,.029,3.741,1.68,1.68,0,0,1,.521,2.717L2.8.442A1.509,1.509,0,0,1,5.073.608L7.642,4.023a.905.905,0,0,1-.094,1.195L5.884,6.828a.6.6,0,0,0-.093.753h0a27.354,27.354,0,0,0,8.78,8.78.6.6,0,0,0,.753-.093l1.61-1.664a.906.906,0,0,1,1.195-.094l3.415,2.569a1.509,1.509,0,0,1,.166,2.277l-2.274,2.274a1.719,1.719,0,0,1-1.065.5c-5.481.483-12.155-6.191-12.155-6.191A30.7,30.7,0,0,1,1.967,10.38" transform="translate(3 10.848)" fill="none" stroke="#1f1f1f" stroke-linecap="round" stroke-linejoin="round" stroke-width="1.1"/>
      <path id="Vector-3" data-name="Vector" d="M3.126,2.875a11.286,11.286,0,1,1,11.3,19.049M0,7.549A11.207,11.207,0,0,1,1.775,4.315" transform="translate(9.037 5.026)" fill="none" stroke="#1f1f1f" stroke-linecap="round" stroke-linejoin="round" stroke-width="1.1"/>
      <path id="Vector-4" data-name="Vector" d="M22.161,4.545a13.321,13.321,0,0,1-4.574,20.918M0,7.848a13.322,13.322,0,0,1,20.729-4.71" transform="translate(7.547 3)" fill="none" stroke="#1f1f1f" stroke-linecap="round" stroke-linejoin="round" stroke-width="1.1"/>
    </g>
  </g>
</svg>
